<svg width="56" height="56" viewBox="0 0 56 56" fill="none" xmlns="http://www.w3.org/2000/svg">
<g clip-path="url(#clip0_1_1979)">
<path d="M27.5332 25.4333C22.2366 24.0567 20.5332 22.6333 20.5332 20.4167C20.5332 17.8733 22.8899 16.1 26.8332 16.1C30.9866 16.1 32.5266 18.0833 32.6666 21H37.8232C37.6599 16.9867 35.2099 13.3 30.3332 12.11V7H23.3332V12.04C18.8066 13.02 15.1666 15.96 15.1666 20.4633C15.1666 25.8533 19.6232 28.5367 26.1332 30.1C31.9666 31.5 33.1332 33.5533 33.1332 35.7233C33.1332 37.3333 31.9899 39.9 26.8332 39.9C22.0266 39.9 20.1366 37.7533 19.8799 35H14.7466C15.0266 40.11 18.8532 42.98 23.3332 43.9367V49H30.3332V43.9833C34.8832 43.12 38.4999 40.4833 38.4999 35.7C38.4999 29.0733 32.8299 26.81 27.5332 25.4333Z" fill="#B153E0"/>
</g>
<defs>
<clipPath id="clip0_1_1979">
<rect width="56" height="56" fill="white"/>
</clipPath>
</defs>
</svg>
