<svg width="101" height="26" viewBox="0 0 101 26" fill="none" xmlns="http://www.w3.org/2000/svg">
<g clip-path="url(#clip0_1_1881)">
<path d="M8.28014 26C6.64327 25.9918 5.04553 25.49 3.68894 24.558C2.33234 23.6259 1.2778 22.3055 0.658647 20.7637C0.0394977 19.2219 -0.116458 17.5279 0.2105 15.8959C0.537457 14.264 1.33264 12.7673 2.49552 11.5951C3.6584 10.4229 5.13674 9.62787 6.74365 9.31053C8.35055 8.99319 10.0138 9.16778 11.5232 9.81223C13.0326 10.4567 14.3203 11.542 15.2235 12.9311C16.1267 14.3201 16.6049 15.9505 16.5975 17.616C16.5926 18.7223 16.3736 19.8167 15.9529 20.8368C15.5323 21.8569 14.9182 22.7827 14.1458 23.5613C13.3734 24.3398 12.4578 24.9559 11.4514 25.3744C10.445 25.7928 9.36735 26.0054 8.28014 26Z" fill="white"/>
<path d="M20.7499 4.65957e-05C22.539 0.00675076 24.2522 0.7359 25.5132 2.02727C26.7742 3.31863 27.4797 5.06656 27.4747 6.88696C27.471 8.24557 27.0714 9.57254 26.3264 10.7C25.5814 11.8275 24.5245 12.7048 23.2893 13.2209C22.0542 13.7371 20.6964 13.8689 19.3877 13.5997C18.0789 13.3305 16.878 12.6724 15.9369 11.7086C14.9958 10.7448 14.3568 9.51866 14.1007 8.18528C13.8446 6.85189 13.9829 5.47117 14.4981 4.21778C15.0133 2.96438 15.8823 1.89464 16.9952 1.14387C18.108 0.393104 19.4147 -0.0049569 20.7499 4.65957e-05Z" fill="white"/>
<path d="M49.4565 7.4343C50.7598 7.4343 52.0289 7.45329 53.2949 7.4343C53.4681 7.40635 53.6452 7.44777 53.789 7.54986C53.9329 7.65196 54.0322 7.80678 54.0663 7.98183C55.1238 10.9316 56.2125 13.8686 57.2949 16.812C57.3913 17.0747 57.5033 17.3342 57.6464 17.695C58.8502 14.4478 60.0259 11.3272 61.1519 8.20022C61.3665 7.59888 61.6434 7.41215 62.2561 7.44063C63.435 7.4976 64.6201 7.45962 65.9047 7.45962C65.2826 9.11172 64.7165 10.6752 64.1442 12.2418C62.8316 15.8246 61.5096 19.4199 60.2125 23.028C60.0259 23.5439 59.7926 23.7622 59.2203 23.7306C58.1379 23.6768 57.043 23.7021 55.9605 23.7306C55.8267 23.7559 55.6884 23.7271 55.5751 23.6503C55.4618 23.5734 55.3825 23.4546 55.354 23.3191C53.4338 18.1582 51.5032 12.9983 49.5623 7.83941C49.5185 7.70685 49.4831 7.57152 49.4565 7.4343Z" fill="white"/>
<path d="M75.7524 15.5744C75.7524 14.3401 75.7524 13.1058 75.7524 11.8746C75.7524 11.4695 75.6622 11.2764 75.2423 11.3429C75.1908 11.3508 75.1383 11.3508 75.0868 11.3429C74.4802 11.2891 73.6466 11.6277 73.32 11.2036C72.9934 10.7795 73.205 10.001 73.2143 9.37747C73.2236 8.75398 72.9499 7.94375 73.3232 7.55446C73.6964 7.16517 74.4989 7.42787 75.1086 7.44686C75.6156 7.44686 75.7773 7.32026 75.7555 6.79488C75.7151 5.74728 75.7555 4.69652 75.7369 3.64892C75.7369 3.24381 75.824 3.10139 76.247 3.11405C77.3326 3.1457 78.4243 3.13937 79.5037 3.11405C79.8894 3.11405 79.9796 3.24065 79.9702 3.60778C79.9485 4.65538 79.9951 5.70614 79.9516 6.75373C79.9298 7.31076 80.0324 7.54813 80.6514 7.50066C81.5006 7.4342 82.356 7.50066 83.2082 7.47534C83.6312 7.45951 83.7992 7.56079 83.7806 8.02604C83.7432 8.94387 83.7494 9.86487 83.7806 10.7827C83.7961 11.2226 83.6748 11.3714 83.2238 11.3556C82.3186 11.3207 81.4135 11.3556 80.5083 11.3334C80.0666 11.3176 79.9516 11.4568 79.9578 11.8999C79.9827 13.6027 79.9578 15.3086 79.9578 17.0145C79.9578 19.0432 80.9936 19.9231 82.9469 19.4293C83.7681 19.2236 83.8054 19.4958 83.7743 20.1573C83.7308 21.0466 83.7743 21.9391 83.7588 22.8316C83.7588 23.0215 83.8054 23.1924 83.5473 23.3444C81.8054 24.3698 78.359 23.8128 76.9904 22.2746C76.2453 21.4241 75.8229 20.331 75.7991 19.192C75.7431 17.9893 75.7991 16.7803 75.7991 15.5744H75.7524Z" fill="white"/>
<path d="M22.7065 24.9179C21.718 24.9177 20.7519 24.6179 19.9315 24.0569C19.111 23.4959 18.4734 22.6989 18.0998 21.7677C17.7262 20.8365 17.6337 19.8132 17.8339 18.8282C18.0341 17.8432 18.5181 16.9412 19.2241 16.2372C19.9301 15.5332 20.8261 15.0591 21.798 14.8753C22.7699 14.6915 23.7735 14.8064 24.681 15.2052C25.5884 15.6041 26.3586 16.2688 26.8933 17.1148C27.428 17.9608 27.703 18.9496 27.6832 19.9552C27.6572 21.2806 27.1213 22.5428 26.1908 23.4707C25.2603 24.3985 24.0093 24.9181 22.7065 24.9179Z" fill="white"/>
<path d="M67.264 15.508C67.264 13.0172 67.264 10.5232 67.264 8.0324C67.264 7.57032 67.3386 7.39941 67.8456 7.39941C68.9281 7.44372 70.023 7.4279 71.1023 7.39941C71.4756 7.39941 71.5751 7.50702 71.5751 7.88365C71.5626 12.9982 71.5626 18.1138 71.5751 23.2305C71.5751 23.6356 71.4196 23.702 71.0743 23.6957C69.9888 23.6957 68.897 23.6704 67.8176 23.6957C67.3666 23.6957 67.2609 23.5564 67.264 23.1165C67.2733 20.6036 67.264 18.0589 67.264 15.508Z" fill="white"/>
<path d="M6.80261 4.91852C6.80177 4.50354 6.88179 4.09252 7.03804 3.70921C7.1943 3.3259 7.42368 2.97791 7.71292 2.68537C8.00217 2.39282 8.34554 2.16152 8.72319 2.00484C9.10083 1.84816 9.50526 1.76922 9.91308 1.77256C10.7224 1.78885 11.495 2.11895 12.0731 2.69543C12.6512 3.2719 12.9912 4.05124 13.0235 4.87421C13.0291 5.29684 12.9508 5.71628 12.7934 6.10742C12.6359 6.49856 12.4026 6.85337 12.1073 7.15061C11.8119 7.44786 11.4607 7.68144 11.0746 7.83737C10.6885 7.9933 10.2755 8.06839 9.8602 8.05814C9.45369 8.06783 9.04951 7.99303 8.67239 7.83831C8.29526 7.68359 7.95313 7.4522 7.66692 7.15831C7.38071 6.86442 7.15643 6.5142 7.00782 6.12908C6.85921 5.74396 6.78938 5.33204 6.80261 4.91852Z" fill="white"/>
<path d="M69.4383 6.29507C68.618 6.29436 67.8308 5.96594 67.2461 5.38051C66.6615 4.79508 66.3261 3.99947 66.3123 3.16494C66.3122 2.32883 66.6374 1.52668 67.2167 0.933677C67.796 0.340678 68.5824 0.00501669 69.4041 0C70.2118 0.00755707 70.9856 0.331396 71.5648 0.904262C72.1441 1.47713 72.4842 2.255 72.5145 3.07632C72.5094 3.91317 72.1863 4.71556 71.6129 5.31552C71.0395 5.91547 70.2603 6.26648 69.4383 6.29507Z" fill="white"/>
<path d="M51.8671 23.171C49.1029 15.8178 46.3501 8.46144 43.6088 1.10189C43.5756 0.940285 43.4832 0.797618 43.3502 0.702946C43.2173 0.608274 43.0539 0.568718 42.8934 0.592334C41.6492 0.627149 40.405 0.630314 39.1608 0.592334C38.9765 0.565788 38.7891 0.611494 38.6367 0.720202C38.4842 0.828909 38.378 0.992495 38.3396 1.17785C37.6056 3.20341 36.8342 5.22264 36.0814 7.24821C34.0379 12.6982 31.9912 18.1483 29.9041 23.7059C31.3909 23.7059 32.7812 23.6838 34.1716 23.7059C34.5698 23.7059 34.6351 23.5034 34.7346 23.2312C35.2012 21.9652 35.6895 20.6992 36.1281 19.4142C36.1579 19.238 36.2536 19.0803 36.395 18.9741C36.5365 18.868 36.7128 18.8215 36.8871 18.8446C39.6305 18.8657 42.3718 18.8657 45.1111 18.8446C45.2727 18.8179 45.438 18.8571 45.5714 18.9537C45.7047 19.0503 45.7953 19.1964 45.8234 19.3604C46.2682 20.6264 46.7566 21.8924 47.2107 23.1774C47.3382 23.5382 47.4875 23.7154 47.9106 23.7027C49.0987 23.6679 50.2901 23.6743 51.4783 23.7027C51.9262 23.7376 52.0537 23.6648 51.8671 23.171ZM37.9695 14.6257C38.9648 11.9608 39.9384 9.3434 40.9929 6.51711C42.0411 9.32757 43.0116 11.926 44.0225 14.6257H37.9695Z" fill="white"/>
<path d="M92.6454 7.17805C91.5331 7.18445 90.4335 7.4197 89.4128 7.86964C88.3922 8.31958 87.4714 8.97492 86.7061 9.79625C85.9407 10.6176 85.3466 11.5879 84.9593 12.6489C84.572 13.71 84.3996 14.8397 84.4524 15.9703C84.5769 20.4803 88.3872 24.0662 92.9471 23.9617C95.1274 23.9119 97.1992 22.9843 98.7082 21.3824C100.217 19.7804 101.04 17.6349 100.997 15.4164C100.901 10.8082 97.1152 7.07044 92.6454 7.17805ZM92.521 19.6701C90.4805 19.6701 88.6858 17.7711 88.6702 15.5557C88.6485 13.3908 90.5147 11.5298 92.6921 11.5014C93.7464 11.501 94.7592 11.9197 95.5146 12.6682C96.2699 13.4166 96.7081 14.4357 96.7357 15.5082C96.7606 17.8756 94.9565 19.6543 92.521 19.6701Z" fill="white"/>
</g>
<defs>
<clipPath id="clip0_1_1881">
<rect width="101" height="26" fill="white"/>
</clipPath>
</defs>
</svg>
