<svg width="160" height="34" viewBox="0 0 160 34" fill="none" xmlns="http://www.w3.org/2000/svg">
<g clip-path="url(#clip0_1_1894)">
<path d="M34.7247 17.0411C34.7269 17.8186 34.4949 18.5792 34.0579 19.2267C33.621 19.8743 32.9989 20.3795 32.2703 20.6785C31.5417 20.9775 30.7395 21.0569 29.9651 20.9065C29.1907 20.7562 28.479 20.3828 27.9201 19.8338C27.3612 19.2848 26.9803 18.5848 26.8255 17.8224C26.6707 17.06 26.749 16.2695 27.0506 15.551C27.3521 14.8324 27.8633 14.2182 28.5194 13.786C29.1756 13.3539 29.9471 13.1232 30.7364 13.1232C31.2603 13.1193 31.7798 13.218 32.2647 13.4134C32.7496 13.6088 33.1904 13.897 33.5613 14.2615C33.9323 14.6259 34.2262 15.0593 34.4259 15.5364C34.6256 16.0135 34.7272 16.525 34.7247 17.0411Z" fill="white"/>
<path d="M21.2443 3.92516C21.3874 6.19858 19.2556 7.83948 17.3733 7.87562C16.3144 7.87233 15.2983 7.46363 14.5397 6.7359C13.7811 6.00816 13.3394 5.0184 13.3079 3.97576C13.2529 1.76741 15.3517 0 17.2449 0C19.2519 0 21.3397 1.67705 21.2443 3.92516Z" fill="white"/>
<path d="M21.2589 29.9985C21.3763 32.3008 19.2005 33.9742 17.3109 34.0068C15.4213 34.0393 13.3079 32.3297 13.3152 30.1105C13.315 29.0679 13.7307 28.0669 14.4726 27.3232C15.2145 26.5796 16.2232 26.1528 17.2815 26.1348C18.3269 26.1347 19.3303 26.54 20.0747 27.2631C20.819 27.9861 21.2444 28.9688 21.2589 29.9985Z" fill="white"/>
<path d="M21.2808 17.027C21.2673 18.0591 20.8385 19.0437 20.0887 19.7647C19.3389 20.4857 18.3293 20.8842 17.2815 20.8726C16.5052 20.8597 15.7502 20.6209 15.1115 20.1861C14.4728 19.7514 13.9791 19.1401 13.6924 18.4295C13.4056 17.7188 13.3389 16.9404 13.5004 16.1924C13.6619 15.4444 14.0446 14.7602 14.6001 14.226C15.1557 13.6918 15.8593 13.3315 16.6223 13.1905C17.3853 13.0494 18.1737 13.134 18.888 13.4335C19.6023 13.733 20.2107 14.234 20.6365 14.8735C21.0623 15.5129 21.2865 16.2622 21.2808 17.027Z" fill="white"/>
<path d="M14.5518 10.5425C14.5382 11.5712 14.1119 12.5527 13.3659 13.2726C12.62 13.9925 11.6151 14.3923 10.5708 14.3846C9.79355 14.3753 9.03654 14.1393 8.39533 13.7065C7.75412 13.2737 7.25747 12.6635 6.96808 11.9528C6.67868 11.2422 6.60952 10.463 6.76933 9.71372C6.92914 8.96439 7.31075 8.27851 7.86598 7.74266C8.4212 7.20682 9.12516 6.84503 9.88896 6.703C10.6528 6.56096 11.4422 6.64503 12.1575 6.94459C12.8728 7.24416 13.482 7.74579 13.9082 8.38615C14.3343 9.02651 14.5583 9.77689 14.5518 10.5425Z" fill="white"/>
<path d="M105.7 17.5767C105.617 16.4077 105.231 15.2791 104.58 14.2985C103.928 13.3178 103.033 12.5177 101.979 11.9743C100.925 11.4309 99.7471 11.1622 98.5578 11.1939C97.3685 11.2255 96.2073 11.5565 95.1846 12.1552C95.0085 12.2564 94.8764 12.4949 94.6342 12.3721C94.392 12.2492 94.4728 11.9528 94.4691 11.7287C94.4691 10.7673 94.4691 9.80949 94.4691 8.83724C94.4691 6.9108 93.9151 6.30721 91.9924 6.15902C91.0751 6.09035 90.8513 6.28552 90.8477 7.20356C90.8477 9.12277 90.8477 11.0384 90.8477 13.3913C91.0274 15.4623 90.6238 17.9706 91.1302 20.4826C92.2126 25.839 98.6446 27.3751 102.449 24.874C105.143 23.1319 105.928 20.6019 105.7 17.5767ZM102.171 19.1236C101.851 21.3681 100.226 22.8934 98.1346 22.9114C96.3917 22.9114 95.2836 21.9464 94.6966 20.4501C93.5518 17.5189 95.1002 14.2009 98.4024 14.3419C100.644 14.4575 102.501 16.8068 102.171 19.1236Z" fill="white"/>
<path d="M159.626 10.6477C158.848 10.2862 156.287 10.8103 155.667 11.4392C154.511 12.6175 154.291 14.2295 153.693 15.6644C153.355 16.474 153.12 17.3233 152.812 18.1474C152.721 18.3896 152.563 19.0835 152.284 19.1016C152.005 19.1197 151.745 18.5197 151.667 18.3173C151.088 16.8354 150.464 15.3644 149.877 13.8897C149.55 13.062 149.323 12.1259 148.626 11.5079C148.095 11.0939 147.462 10.8258 146.791 10.7308C146.254 10.607 145.7 10.5691 145.151 10.6188C145.01 10.6246 144.871 10.6598 144.745 10.7221C144.618 10.7844 144.507 10.8723 144.417 10.9802C144.208 11.2946 144.355 11.7031 144.509 12.0645L149.334 22.9111C149.618 23.4615 149.806 24.0555 149.888 24.6677C149.926 24.9744 149.887 25.2858 149.774 25.574C149.661 25.8622 149.477 26.1183 149.238 26.3194C148.684 26.7278 147.903 26.6808 147.287 26.9917C146.754 27.3227 146.317 27.7833 146.017 28.329C145.818 28.5672 145.711 28.8664 145.712 29.1747C145.755 29.3317 145.832 29.4776 145.938 29.6024C146.044 29.7272 146.176 29.8279 146.325 29.8976C146.906 30.2113 147.551 30.39 148.213 30.4201C148.874 30.4501 149.534 30.3308 150.141 30.0711C151.994 29.3229 152.977 27.8121 153.774 26.0953C155.282 22.8424 156.558 19.5064 157.949 16.2065C158.565 14.7391 159.266 13.3151 159.857 11.8259C160.007 11.4754 160.165 10.9079 159.626 10.6477Z" fill="white"/>
<path d="M88.7454 24.8236C87.23 22.9188 85.9935 20.8297 84.625 18.831C84.454 18.6433 84.3594 18.4001 84.3594 18.1479C84.3594 17.8957 84.454 17.6525 84.625 17.4648C85.7722 15.8938 86.8962 14.3047 87.9969 12.6975C88.2024 12.3975 89.4279 11.3277 88.7307 10.9951C88.6144 10.9489 88.489 10.9291 88.3638 10.9373C87.2888 10.9373 85.8541 10.7313 84.8708 11.1939C84.0434 11.6432 83.379 12.3356 82.9702 13.1746C82.7794 13.518 81.5245 15.2167 81.708 15.5203C81.1466 14.595 80.6476 13.8216 80.1926 13.0264C79.5285 11.8662 78.6186 10.9915 77.2096 10.9373C76.5675 10.9156 75.9254 11.0024 75.2833 10.9373C74.344 10.8686 74.2743 11.2988 74.7403 11.9493C76.0869 13.8613 77.4261 15.7769 78.7764 17.6817C78.8914 17.7934 78.9603 17.9432 78.9698 18.102C78.9793 18.2609 78.9287 18.4176 78.8277 18.5419C77.6316 20.4069 76.5345 22.3333 75.1586 24.079C74.9605 24.332 74.0909 25.1344 74.4981 25.4778C74.5874 25.5435 74.6922 25.5858 74.8027 25.6007C76.1052 25.8753 77.8517 25.8645 78.9672 25.0621C80.2697 24.126 80.5632 22.2827 81.7557 21.2129C82.2329 22.2217 82.8158 23.1786 83.4949 24.0682C83.9645 24.6898 84.4892 25.3513 85.2781 25.5826C86.221 25.8537 87.4098 25.7055 88.3858 25.6838C88.52 25.692 88.6544 25.6698 88.7784 25.6187C89.16 25.4489 88.9215 25.0477 88.7454 24.8236Z" fill="white"/>
<path d="M141.174 10.8716C139.904 11.1535 139.093 11.9993 138.238 12.9318C137.912 12.1909 137.842 11.6595 137.09 11.168C136.708 10.9721 136.273 10.8964 135.846 10.9511C135.112 10.9764 134.404 10.8463 134.404 11.7824C134.419 16.0064 134.419 20.2327 134.404 24.4615C134.404 25.0904 134.672 25.3326 135.27 25.3326C135.868 25.3326 136.554 25.2964 137.193 25.3326C138 25.3868 138.326 25.0506 138.238 24.2772C138.134 22.9026 138.111 21.5232 138.169 20.146C138.149 19.098 138.281 18.0525 138.561 17.0413C139.001 15.5956 140.278 14.4281 141.533 14.3631C143.206 14.2763 143.206 14.2763 143.206 12.5957V12.3246C143.214 10.8427 142.7 10.5283 141.174 10.8716Z" fill="white"/>
<path d="M130.753 10.771C129.792 11.0891 128.882 11.4939 128.258 12.3216C128.027 12.6324 127.825 12.5457 127.722 12.2782C127.091 10.6228 125.679 10.9012 124.358 10.9445C123.991 11.0096 123.991 11.2843 123.991 11.5626C123.991 15.8998 123.991 20.2466 123.991 24.6031C123.991 25.1886 124.259 25.4018 124.831 25.3874C125.565 25.3657 126.299 25.3512 127.033 25.3874C127.767 25.4235 128.064 25.1525 128.049 24.3971C128.009 22.4489 128.049 20.5008 128.031 18.5527C128.005 17.8956 128.139 17.2419 128.42 16.6455C128.701 16.0491 129.122 15.5272 129.649 15.1227C130.306 14.6058 131.083 14.1251 132.048 14.5914C132.716 14.9131 132.944 14.4649 132.988 13.9227C133.032 13.3806 132.929 12.7734 133.013 12.2168C133.189 10.9084 132.364 10.2253 130.753 10.771Z" fill="white"/>
<path d="M14.2362 10.5755C14.482 12.632 12.2622 14.2223 10.6698 14.1573C8.48667 14.0705 6.90527 12.8091 6.90527 10.3695C6.90527 8.20088 8.55638 6.88526 10.5744 6.86719C12.5337 6.86719 14.361 8.24425 14.2362 10.5755Z" fill="white"/>
<path d="M27.6725 10.4997C27.9183 12.5526 25.6838 14.1429 24.1061 14.0959C21.9046 14.0092 20.3416 12.7478 20.3416 10.3081C20.3416 8.1395 21.9927 6.82027 24.0107 6.8022C25.97 6.77328 27.7972 8.16842 27.6725 10.4997Z" fill="white"/>
<path d="M7.48865 17.06C7.73448 19.1166 5.51465 20.7069 3.92225 20.6418C1.73911 20.5551 0.157715 19.2937 0.157715 16.854C0.157715 14.6854 1.80883 13.3698 3.82685 13.3517C5.78617 13.3337 7.60973 14.7288 7.48865 17.06Z" fill="white"/>
<path d="M7.66474 17.031C7.66741 17.5161 7.57092 17.9968 7.38101 18.4444C7.1911 18.892 6.91166 19.2974 6.55934 19.6363C6.20703 19.9753 5.78905 20.2409 5.33031 20.4174C4.87157 20.5938 4.38147 20.6775 3.8892 20.6634C1.46758 20.6598 0.0182663 18.9828 -7.94052e-05 17.0202C-0.0184251 15.0576 1.49693 13.3444 3.84151 13.33C4.34097 13.3193 4.83753 13.4073 5.30193 13.5888C5.76632 13.7702 6.18914 14.0413 6.54546 14.3863C6.90178 14.7312 7.18439 15.1429 7.37662 15.5972C7.56885 16.0514 7.66682 16.5389 7.66474 17.031Z" fill="white"/>
<path d="M27.8598 23.6013C27.86 24.0849 27.7616 24.5636 27.5706 25.0091C27.3796 25.4546 27.0998 25.8578 26.7477 26.1948C26.3957 26.5319 25.9785 26.7959 25.521 26.9712C25.0635 27.1466 24.5749 27.2297 24.0842 27.2157C21.6663 27.2157 20.2096 25.535 20.1949 23.5724C20.1803 21.6099 21.6919 19.9147 24.0365 19.9003C24.536 19.8897 25.0325 19.9776 25.4969 20.1591C25.9613 20.3405 26.3842 20.6117 26.7405 20.9566C27.0968 21.3015 27.3794 21.7132 27.5716 22.1675C27.7639 22.6217 27.8618 23.1092 27.8598 23.6013Z" fill="white"/>
<path d="M14.728 23.6013C14.7282 24.0849 14.6299 24.5636 14.4389 25.0091C14.2479 25.4546 13.968 25.8578 13.616 26.1948C13.2639 26.5319 12.8468 26.7959 12.3893 26.9712C11.9317 27.1466 11.4432 27.2297 10.9524 27.2157C8.53448 27.2157 7.0815 25.535 7.06315 23.5724C7.04481 21.6099 8.56016 19.9147 10.9047 19.9003C11.4042 19.8897 11.9008 19.9776 12.3652 20.1591C12.8296 20.3405 13.2524 20.6117 13.6087 20.9566C13.965 21.3015 14.2476 21.7132 14.4399 22.1675C14.6321 22.6217 14.7301 23.1092 14.728 23.6013Z" fill="white"/>
<path d="M112.088 19.4159C113.527 19.4159 114.961 19.4159 116.396 19.4159C117.831 19.4159 119.206 19.3942 120.612 19.4159C121.18 19.4159 121.474 19.2062 121.536 18.6713C121.771 16.6437 121.434 14.7389 120.069 13.1522C119.526 12.4899 118.848 11.9474 118.079 11.56C117.31 11.1727 116.466 10.9492 115.603 10.9041C113.894 10.7921 112.272 10.886 110.793 11.7716C109.882 12.2995 109.093 13.0096 108.477 13.8563C107.862 14.7029 107.433 15.6672 107.219 16.687C106.849 18.1264 106.949 19.6443 107.506 21.0242C107.993 22.1727 108.743 23.1946 109.698 24.0097C110.653 24.8249 111.786 25.4112 113.009 25.7229C115.794 26.4783 118.513 25.7518 120.843 24.1759C121.014 24.0914 121.16 23.9642 121.266 23.807C121.373 23.6498 121.435 23.468 121.448 23.2796C121.412 22.0941 119.658 21.0712 118.594 21.6387C117.883 22.028 117.112 22.2991 116.311 22.4411C114.308 22.7844 112.43 21.982 111.542 20.4062C111.138 19.705 111.288 19.4195 112.088 19.4159ZM111.204 15.8738C111.52 14.8329 113.292 13.7667 114.756 13.7305C116.22 13.6944 117.365 14.4064 117.853 15.6317C118.124 16.3148 117.922 16.5858 117.196 16.575C116.311 16.575 115.427 16.575 114.543 16.575C113.626 16.575 112.708 16.575 111.795 16.575C111.263 16.5895 111.05 16.3871 111.204 15.8738Z" fill="white"/>
<path d="M55.5249 13.4269C53.7564 11.5113 51.0009 10.3873 48.4325 11.2041C48.238 11.2656 48.0655 11.3378 47.8564 11.4101C47.5959 11.5041 46.7336 12.0029 46.4658 11.8583C46.198 11.7137 46.286 11.1716 46.286 10.9258V8.75721C46.3169 8.20469 46.182 7.65544 45.8982 7.1779C45.6144 6.70037 45.1942 6.31568 44.6899 6.07176C43.325 5.34889 42.0738 6.05007 42.0738 7.53918C42.0738 10.8644 42.0335 14.1895 42.0738 17.5147C42.1069 20.1496 42.5802 22.5748 44.7009 24.4253C45.6425 25.2239 46.7636 25.7899 47.9715 26.0765C49.1794 26.3631 50.4392 26.3621 51.6466 26.0735C56.3321 24.9133 58.8418 19.5062 56.7504 15.2305C56.4328 14.574 56.02 13.9664 55.5249 13.4269ZM52.0282 22.076C51.5681 22.4403 51.0276 22.6929 50.4501 22.8135C49.8726 22.934 49.2745 22.9191 48.704 22.77C45.1192 21.8086 44.7376 15.9678 48.238 14.6341C48.8197 14.4223 49.4432 14.3454 50.0599 14.4094C50.6767 14.4734 51.2702 14.6765 51.7944 15.003C52.3185 15.3295 52.7593 15.7707 53.0824 16.2921C53.4054 16.8136 53.6022 17.4014 53.6573 18.0099C53.6678 18.1301 53.6678 18.2511 53.6573 18.3713C53.661 19.8171 53.2023 21.1471 52.0282 22.076Z" fill="white"/>
<path d="M72.4802 13.5538C70.2163 11.2009 66.3013 10.3371 62.9001 11.8551C58.4274 13.8538 57.2056 19.5681 60.1482 23.2113C60.7734 24.0073 61.5531 24.6729 62.4419 25.1693C63.3307 25.6657 64.3109 25.983 65.3254 26.1028C67.3837 26.3341 69.8531 25.951 71.4455 24.5595C71.684 24.3498 71.9004 24.1221 72.1169 23.8908C72.8508 23.0957 73.5039 22.4017 73.9148 21.3789C74.2589 20.5152 74.4368 19.5959 74.4395 18.6681C74.4505 16.8356 73.8121 14.8622 72.4802 13.5538ZM70.708 18.6537C70.7178 19.208 70.615 19.7587 70.4059 20.2735C70.1967 20.7882 69.8852 21.2566 69.4898 21.6511C69.0944 22.0457 68.6229 22.3585 68.1031 22.5712C67.5833 22.7839 67.0256 22.8921 66.4628 22.8897C64.0595 22.8897 62.2286 20.9885 62.2543 18.5272C62.2303 17.9609 62.3239 17.3958 62.5294 16.8664C62.7349 16.3371 63.0479 15.8546 63.4493 15.4486C63.8507 15.0426 64.332 14.7215 64.8637 14.5052C65.3955 14.2888 65.9665 14.1816 66.5418 14.1903C67.117 14.1989 67.6845 14.3231 68.2093 14.5553C68.7341 14.7875 69.2053 15.1228 69.594 15.5407C69.9826 15.9586 70.2806 16.4502 70.4696 16.9855C70.6587 17.5207 70.7348 18.0884 70.6933 18.6537H70.708Z" fill="white"/>
</g>
<defs>
<clipPath id="clip0_1_1894">
<rect width="160" height="34" fill="white"/>
</clipPath>
</defs>
</svg>
