<svg width="24" height="25" viewBox="0 0 24 25" fill="none" xmlns="http://www.w3.org/2000/svg">
<g clip-path="url(#clip0_1_2006)">
<path d="M17 12.5C14.24 12.5 12 14.74 12 17.5C12 20.26 14.24 22.5 17 22.5C19.76 22.5 22 20.26 22 17.5C22 14.74 19.76 12.5 17 12.5ZM18.65 19.85L16.5 17.7V14.5H17.5V17.29L19.35 19.14L18.65 19.85ZM18 3.5H14.82C14.4 2.34 13.3 1.5 12 1.5C10.7 1.5 9.6 2.34 9.18 3.5H6C4.9 3.5 4 4.4 4 5.5V20.5C4 21.6 4.9 22.5 6 22.5H12.11C11.52 21.93 11.04 21.25 10.69 20.5H6V5.5H8V8.5H16V5.5H18V10.58C18.71 10.68 19.38 10.89 20 11.18V5.5C20 4.4 19.1 3.5 18 3.5ZM12 5.5C11.45 5.5 11 5.05 11 4.5C11 3.95 11.45 3.5 12 3.5C12.55 3.5 13 3.95 13 4.5C13 5.05 12.55 5.5 12 5.5Z" fill="#27262B"/>
</g>
<defs>
<clipPath id="clip0_1_2006">
<rect width="24" height="24" fill="white" transform="translate(0 0.5)"/>
</clipPath>
</defs>
</svg>
