<svg width="77" height="36" viewBox="0 0 77 36" fill="none" xmlns="http://www.w3.org/2000/svg">
<rect x="0.554199" width="75.8919" height="36" rx="8" fill="#131218"/>
<path fill-rule="evenodd" clip-rule="evenodd" d="M36.6823 8.01919C36.6705 8.02977 36.3571 8.05361 35.986 8.07222C35.026 8.12035 32.5424 8.25369 31.9895 8.28675C31.4939 8.31642 31.0215 8.3453 30.3027 8.38994C30.06 8.40501 29.1842 8.4522 28.3563 8.4948C27.5285 8.53746 26.676 8.58455 26.4619 8.59951C26.2478 8.61443 25.442 8.66146 24.6713 8.70401C23.9005 8.74656 23.0597 8.79375 22.8028 8.80887C22.5459 8.824 22.1372 8.84793 21.8945 8.86211C21.3687 8.89283 17.936 9.08311 17.1974 9.12253C16.9119 9.1377 16.5149 9.16065 16.315 9.17347C16.1152 9.18635 15.2394 9.23422 14.3687 9.27995C13.498 9.32568 12.7336 9.37355 12.6699 9.38623L12.5542 9.40938L12.651 9.65634C12.7043 9.79217 12.8542 10.1966 12.9843 10.5551C13.1143 10.9136 13.3712 11.6176 13.5552 12.1195C13.7392 12.6214 14.6075 14.9914 15.4847 17.3861C16.362 19.7809 17.1062 21.8106 17.1386 21.8967C17.1836 22.0164 17.2034 21.1303 17.2233 18.1161L17.2493 14.1792L19.1956 14.1635C20.3985 14.1539 21.3699 14.1707 21.7388 14.2077C23.5174 14.3859 24.592 15.0066 24.9636 16.0703C25.1129 16.4978 25.1119 17.2959 24.9616 17.7251C24.7329 18.3779 24.2488 18.8876 23.5281 19.2345C22.765 19.6019 21.9036 19.7518 20.3774 19.783C20.2953 19.7846 20.2863 19.8872 20.2736 20.9711L20.2596 22.1574H18.7674C17.6546 22.1574 17.2752 22.173 17.2752 22.219C17.2752 22.2529 17.3784 22.5579 17.5045 22.8969C17.7988 23.6879 19.1528 27.3903 19.2796 27.7507C19.348 27.9451 19.3979 28.0169 19.4503 27.9967C19.5231 27.9687 23.7235 26.6411 25.9688 25.9366C29.6694 24.7753 32.393 23.9074 32.4194 23.8808C32.436 23.8641 32.4045 23.7937 32.3493 23.7242C31.8179 23.0561 31.5928 22.7213 31.5439 22.5264L31.4878 22.3025L30.7006 22.2723C29.4768 22.2255 28.6576 22.0409 27.8266 21.6246C26.5195 20.9698 25.7951 19.8864 25.7 18.4443C25.5643 16.3843 26.868 14.8143 29.2127 14.2143C29.7308 14.0818 29.8205 14.0749 31.0293 14.0754C32.1872 14.0758 32.3391 14.0864 32.7277 14.1934C32.9624 14.2581 33.2135 14.3336 33.2856 14.3611L33.4168 14.4112V15.4826V16.5539L33.2222 16.4554C32.6573 16.1697 31.8748 15.9804 31.2524 15.9791C29.9075 15.9762 29.0628 16.6284 28.9015 17.7942C28.7967 18.5516 29.0046 19.2068 29.4985 19.6761C30.2364 20.3773 31.3897 20.5311 32.8641 20.1249C33.2309 20.0239 33.549 19.9412 33.571 19.9412C33.5929 19.9412 33.6107 19.9823 33.6106 20.0325C33.6098 20.2217 33.6287 20.2536 33.7916 20.3383C33.8836 20.3861 34.1463 20.5912 34.3755 20.7941L34.7922 21.163L34.8182 17.6711L34.8441 14.1792H36.3752H37.9064L37.9198 16.6247L37.9333 19.0704L38.3035 18.528C38.7275 17.907 39.6508 16.6781 40.1756 16.0364C40.3723 15.796 40.5221 15.573 40.5085 15.541C40.4948 15.509 40.2412 14.9431 39.9448 14.2835C39.6483 13.6238 38.8937 11.9402 38.2679 10.5421L37.1298 8H36.9169C36.7998 8 36.6942 8.00866 36.6823 8.01919ZM37.2576 10.0934C37.6263 10.2667 37.9128 10.5531 38.0812 10.9166C38.193 11.1583 38.2153 11.2811 38.2142 11.6502C38.2127 12.2089 38.0806 12.536 37.7196 12.8753C37.3133 13.2572 37.0785 13.3387 36.3752 13.342C35.82 13.3447 35.7584 13.3347 35.4929 13.198C34.8371 12.8607 34.5422 12.3825 34.5383 11.6502C34.535 11.0185 34.7241 10.6202 35.1912 10.2751C35.5561 10.0056 35.8629 9.92483 36.4531 9.94319C36.8804 9.95643 37.0226 9.98303 37.2576 10.0934ZM54.7486 11.1883C54.3761 11.2501 53.8815 11.4852 53.6149 11.7272C53.109 12.1864 52.9588 12.9757 53.26 13.592C53.5246 14.1335 54.1067 14.4775 55.2666 14.7779C55.6228 14.8702 56.0026 14.9812 56.1106 15.0246C56.6256 15.2316 56.6656 15.8716 56.178 16.1041C55.9657 16.2053 55.4794 16.2117 55.2522 16.1163C55.0171 16.0176 54.7791 15.7263 54.6992 15.4393L54.6313 15.196L54.3656 15.199C53.917 15.2041 52.9301 15.2849 52.8959 15.3193C52.8424 15.373 52.9861 15.9328 53.1294 16.229C53.5377 17.0731 54.379 17.4284 55.8339 17.3712C56.3348 17.3515 56.6339 17.3131 56.8656 17.2387C57.7819 16.9442 58.3299 16.2313 58.3299 15.3337C58.3299 14.8681 58.2261 14.5457 57.985 14.2628C57.5941 13.8039 57.1219 13.5838 55.8905 13.2866C55.0829 13.0916 54.9274 13.0215 54.8503 12.8177C54.7356 12.5147 55.0564 12.2533 55.5298 12.2641C55.9428 12.2736 56.2737 12.5195 56.3433 12.8688L56.3736 13.0212L57.0273 12.9877C57.3869 12.9693 57.7834 12.9541 57.9084 12.954L58.1358 12.9538L58.1103 12.7266C58.0963 12.6016 58.0262 12.3709 57.9546 12.2137C57.7097 11.6763 57.2665 11.3627 56.5307 11.206C56.1399 11.1229 55.1993 11.1135 54.7486 11.1883ZM60.7723 11.2098C59.8405 11.4128 59.2675 11.9997 59.2215 12.7985C59.1973 13.2179 59.2687 13.4983 59.4715 13.7795C59.8025 14.2386 60.3345 14.5149 61.4082 14.785C62.3373 15.0188 62.6378 15.2148 62.6378 15.5871C62.6378 15.9425 62.2997 16.1868 61.8078 16.1868C61.2649 16.1868 60.8649 15.8729 60.7865 15.3853L60.754 15.1835L60.0739 15.218C59.6999 15.2369 59.2982 15.2653 59.1812 15.2811L58.9686 15.3098L59.0157 15.5788C59.0731 15.9074 59.301 16.4138 59.4953 16.6447C59.9026 17.1285 60.4741 17.3331 61.5219 17.3705C62.3648 17.4005 62.8382 17.3236 63.3419 17.0751C64.6401 16.4345 64.8386 14.6598 63.697 13.9001C63.3669 13.6804 63.0153 13.553 62.0764 13.3128C61.1642 13.0793 60.9914 13.0039 60.9451 12.8186C60.8689 12.5138 61.1378 12.2639 61.5419 12.2639C62.0363 12.2639 62.3068 12.4308 62.4278 12.8104C62.4999 13.0366 62.4504 13.0297 63.5903 12.9713L64.2574 12.9371L64.2235 12.7246C64.1327 12.1545 63.7233 11.6012 63.2295 11.3818C62.6734 11.1346 61.4959 11.0522 60.7723 11.2098ZM46.6519 14.2574V17.2818H48.2293C49.9999 17.2818 50.3986 17.2335 50.923 16.9552C51.4821 16.6585 51.9353 16.0455 52.108 15.3525C52.2166 14.9166 52.2033 13.5919 52.086 13.1624C51.9415 12.6335 51.7673 12.3004 51.4693 11.9839C51.1209 11.6138 50.8713 11.4679 50.3631 11.3373C49.9987 11.2437 49.7874 11.233 48.3044 11.233H46.6519V14.2574ZM49.6175 12.6852C49.8709 12.7833 50.1187 13.0517 50.2168 13.3343C50.2898 13.5445 50.311 13.764 50.311 14.3096C50.311 15.0719 50.2618 15.3004 50.0408 15.5642C49.8285 15.8177 49.6433 15.8835 49.0562 15.9135L48.5204 15.941V14.2573V12.5734L49.0005 12.6028C49.2645 12.619 49.5422 12.656 49.6175 12.6852ZM44.3268 13.4551C43.4872 13.5771 43.0563 13.7726 42.6868 14.1989C42.5471 14.3601 42.3362 14.5977 42.2182 14.7267C42.1003 14.8558 41.7479 15.2664 41.4354 15.6393C41.1229 16.0121 40.854 16.3289 40.8379 16.3432C40.6881 16.477 39.2031 18.4744 38.6477 19.2894C37.9096 20.3724 36.4852 22.6998 36.4048 22.9543C36.3842 23.0194 36.3107 23.11 36.2415 23.1556C36.0784 23.263 36.1521 23.3167 34.6636 22.0054C33.9933 21.4151 33.4057 20.932 33.3577 20.932C33.241 20.932 32.8251 21.2672 32.5231 21.6047C32.2744 21.8825 32.1831 22.126 32.2425 22.3526C32.2594 22.4173 32.8334 23.1742 33.518 24.0346C34.8405 25.6967 35.0163 25.8696 35.5419 26.0244C35.9549 26.1461 36.632 26.0988 37.0175 25.9215C37.3489 25.7691 37.2919 25.8493 38.1364 24.3475C39.2249 22.4117 40.045 21.011 40.6759 20.0108C40.7512 19.8913 40.918 19.6228 41.0464 19.414C41.5016 18.6743 42.7012 16.8794 43.0481 16.4191C43.7398 15.5011 44.2591 14.9382 45.3712 13.9007C45.7721 13.5268 45.6835 13.3587 45.0978 13.3822C44.8937 13.3903 44.5467 13.4231 44.3268 13.4551ZM20.2726 15.9037C20.2512 15.9255 20.2337 16.4115 20.2337 16.9836V18.0237L20.767 18.0038C21.2326 17.9865 21.3399 17.9642 21.6105 17.8285C21.9925 17.6368 22.154 17.3685 22.154 16.9259C22.154 16.4575 21.9414 16.1681 21.4761 16.0031C21.2411 15.9198 20.3304 15.8446 20.2726 15.9037ZM47.1209 18.3368C46.6989 18.4514 46.4962 18.7657 46.4962 19.3055C46.4962 19.6882 46.6584 20.0278 46.9114 20.1747C47.1603 20.3192 47.7496 20.3224 47.9835 20.1804C48.1404 20.0851 48.4033 19.7019 48.349 19.6474C48.3347 19.633 48.2145 19.5885 48.082 19.5484C47.8622 19.4819 47.8382 19.4834 47.8095 19.5649C47.7129 19.8391 47.3778 19.9336 47.2005 19.7367C47.097 19.6218 47.0384 19.2811 47.088 19.0827C47.1713 18.7489 47.5414 18.6281 47.7325 18.8723C47.7887 18.944 47.8546 19.0025 47.8791 19.0023C48.0068 19.0015 48.3127 18.8861 48.3127 18.8387C48.3127 18.7376 48.0982 18.4802 47.9494 18.4029C47.7627 18.3059 47.3546 18.2734 47.1209 18.3368ZM49.1865 18.3578C48.7939 18.4742 48.5716 18.8311 48.5737 19.3416C48.5746 19.5818 48.7163 19.9237 48.8729 20.0635C49.2467 20.3974 49.9833 20.3721 50.3196 20.0138C50.624 19.6896 50.6573 19.0164 50.3879 18.6363C50.1827 18.3467 49.6444 18.2219 49.1865 18.3578ZM50.9079 19.2894V20.2541H51.1414H51.375L51.3765 19.5892C51.3775 19.2069 51.3965 18.9576 51.4213 19.0026C51.445 19.0456 51.5288 19.3448 51.6073 19.6675L51.7502 20.2541H51.9758C52.1977 20.2541 52.2024 20.2504 52.2585 20.0325C52.2899 19.9106 52.3705 19.6114 52.4375 19.3676L52.5594 18.9244L52.5641 19.5892L52.5687 20.2541H52.8023H53.0359V19.2894V18.3247H52.6562H52.2766L52.1556 18.8331C52.0193 19.406 51.9746 19.4924 51.924 19.2802C51.9046 19.1992 51.8407 18.9511 51.7819 18.7289L51.675 18.3247H51.2914H50.9079V19.2894ZM53.4511 19.2894V20.2541H53.7341H54.0173L54.0326 19.9021L54.0479 19.5501L54.3853 19.5231C54.9151 19.4806 55.0687 19.3461 55.0687 18.9244C55.0687 18.44 54.8678 18.3247 54.0237 18.3247H53.4511V19.2894ZM55.4234 19.2894V20.2541H56.1759H56.9285V20.0194V19.7848H56.4614H55.9943V19.0548V18.3247H55.7088H55.4234V19.2894ZM57.2399 19.2894V20.2541H57.5254H57.8109V19.2894V18.3247H57.5254H57.2399V19.2894ZM58.7395 18.4656C58.7083 18.5459 58.5587 18.94 58.4072 19.3416C58.2556 19.7431 58.1153 20.1126 58.0954 20.1628C58.0634 20.2437 58.095 20.2541 58.3721 20.2541C58.6775 20.2541 58.6858 20.2504 58.7191 20.0977C58.7528 19.9435 58.7582 19.9412 59.0893 19.9412C59.4159 19.9412 59.4267 19.9456 59.4795 20.0977C59.5317 20.248 59.5458 20.2541 59.8457 20.2541C60.1217 20.2541 60.1535 20.2436 60.1219 20.1628C60.1022 20.1126 60.0532 19.9777 60.0129 19.863C59.9726 19.7483 59.8281 19.3611 59.6918 19.0026L59.4439 18.3508L59.1201 18.3353C58.8077 18.3203 58.7943 18.3249 58.7395 18.4656ZM60.3541 19.2894V20.2541H60.6377H60.9212L60.9361 19.7503L60.9509 19.2464L61.2883 19.7483L61.6257 20.2502L61.9241 20.2522L62.2225 20.2541V19.2894V18.3247H61.9371H61.6516V18.8201C61.6516 19.0926 61.6341 19.3149 61.6127 19.3142C61.5913 19.3136 61.4277 19.0906 61.2491 18.8189L60.9245 18.3247H60.6393H60.3541V19.2894ZM62.4821 18.5568V18.7888L62.7805 18.8045L63.0789 18.8201L63.0934 19.5371L63.1078 20.2541H63.3918H63.6758V19.5241V18.794H63.9872H64.2986V18.5594V18.3247H63.3903H62.4821V18.5568ZM49.8462 18.8699C50.0174 19.0419 50.0282 19.4925 49.866 19.6995C49.7463 19.8525 49.49 19.8865 49.3319 19.7703C49.1153 19.6113 49.1198 19.0175 49.3389 18.8444C49.5136 18.7063 49.6924 18.7153 49.8462 18.8699ZM54.4632 18.9231C54.4632 19.0438 54.4327 19.0891 54.3265 19.1266C54.116 19.201 54.022 19.1381 54.022 18.923V18.7359L54.2426 18.752C54.4491 18.7669 54.4632 18.7779 54.4632 18.9231ZM59.1979 19.1199C59.2305 19.2419 59.2728 19.3826 59.2921 19.4328C59.322 19.5109 59.2955 19.5241 59.1084 19.5241C58.9276 19.5241 58.8953 19.5093 58.9221 19.4391C58.94 19.3924 58.9803 19.2516 59.0117 19.1263C59.0431 19.0009 59.0846 18.8983 59.1038 18.8983C59.123 18.8983 59.1654 18.998 59.1979 19.1199ZM41.9018 19.398C41.3393 20.2793 40.784 21.2072 40.8059 21.2292C40.8263 21.2497 42.6883 20.6833 42.7531 20.6368C42.7728 20.6228 42.545 20.073 42.2507 19.4241L42.0989 19.0894L41.9018 19.398Z" fill="white"/>
</svg>
