<svg width="92" height="30" viewBox="0 0 92 30" fill="none" xmlns="http://www.w3.org/2000/svg">
<path fill-rule="evenodd" clip-rule="evenodd" d="M13.3826 0.0832137C8.37112 0.605598 3.90214 3.718 1.61668 8.27765C0.584303 10.3373 0.112621 12.0865 0.0166265 14.2119C-0.174577 18.4432 1.28829 22.398 4.1491 25.3835C6.59426 27.9352 9.67376 29.4711 13.1639 29.8797C14.5453 30.0414 15.2821 30.0404 16.6993 29.8749C23.2996 29.1043 27.9844 24.1805 28.6937 17.2692C28.8363 15.8797 28.8145 14.2921 28.6495 14.0568L28.5137 13.8628H21.4985H14.4833L14.3476 14.0568C14.2354 14.2168 14.2117 14.5599 14.2117 16.0203C14.2117 17.6735 14.2232 17.8014 14.3862 17.9644C14.5563 18.1345 14.6771 18.1389 19.0987 18.1389C22.8335 18.1389 23.6366 18.1596 23.6366 18.2558C23.6366 18.5805 23.2528 19.8017 22.9431 20.4626C21.5055 23.5303 18.5597 25.3049 14.9098 25.3018C10.1598 25.2978 6.2938 22.0091 5.20722 17.0481C5.13348 16.7114 5.09456 15.9326 5.09814 14.8664C5.1032 13.3499 5.12362 13.136 5.33629 12.3626C6.4658 8.2561 9.57716 5.41196 13.6377 4.77412C14.5613 4.62899 16.3449 4.73362 17.3598 4.99237C19.2189 5.4665 20.3984 6.15146 21.7675 7.55202C22.2514 8.04709 22.7053 8.45219 22.7761 8.45219C23.0221 8.45219 26.4677 6.31143 26.5993 6.07676C26.7174 5.86645 26.7083 5.82447 26.4686 5.47156C26.0139 4.80222 24.2427 3.10399 23.4184 2.54713C20.5233 0.591112 16.9431 -0.287936 13.3826 0.0832137ZM57.8154 1.80492C57.6873 1.94647 57.671 2.28201 57.671 4.77202V7.57951H56.4435C55.2607 7.57951 54.9296 7.63824 54.7707 7.87622C54.7354 7.92902 54.706 8.83992 54.7052 9.9004C54.704 11.6586 54.718 11.8413 54.8635 11.973C54.9972 12.094 55.2376 12.1174 56.3471 12.1174H57.671V17.609C57.671 21.0244 57.7063 23.3587 57.7644 23.7832C58.2866 27.6031 61.1082 29.8906 65.0888 29.7213C66.7492 29.6506 67.3763 29.3467 67.495 28.5555C67.5878 27.9369 67.446 25.155 67.3124 24.9723C67.2137 24.8373 67.0849 24.82 66.3648 24.8441C64.5077 24.9067 63.4137 24.3437 62.8958 23.0592L62.6889 22.5459L62.6639 17.3317L62.6388 12.1174H63.9947C65.8391 12.1174 65.6997 12.3025 65.6997 9.85484V7.94124L65.4697 7.76042C65.2605 7.59583 65.1228 7.57951 63.9425 7.57951H62.6453V4.80641C62.6453 2.4377 62.6255 2.00494 62.5094 1.8393C62.3751 1.64749 62.3483 1.64531 60.1667 1.64531C58.1396 1.64531 57.9481 1.65831 57.8154 1.80492ZM71.4207 1.8393C71.3046 2.00494 71.2848 2.43709 71.2848 4.80004V7.56695L69.9678 7.59505C68.1968 7.63283 68.3177 7.46388 68.3177 9.90179C68.3177 12.2898 68.1887 12.1174 69.9758 12.1174H71.2848L71.2875 17.5062C71.2907 24.0215 71.3377 24.51 72.1149 26.1239C73.2062 28.3897 75.1617 29.5821 78.0122 29.7195C79.6358 29.7979 80.7237 29.5239 81.0133 28.9636C81.1191 28.7591 81.146 28.3534 81.146 26.9669C81.146 24.7166 81.2349 24.8487 79.7031 24.8236C78.7517 24.8081 78.4892 24.7727 78.0532 24.6012C77.3368 24.3193 76.7851 23.7526 76.5162 23.0225L76.3086 22.4587L76.2794 17.288L76.2501 12.1174H77.6374C78.8704 12.1174 79.0406 12.0997 79.169 11.9578C79.2942 11.8194 79.3132 11.5441 79.3121 9.88521C79.3113 8.83311 79.2819 7.92902 79.2467 7.87622C79.0866 7.63659 78.7566 7.57951 77.5302 7.57951H76.259V4.80641C76.259 2.4377 76.2392 2.00494 76.1232 1.8393C75.9889 1.64749 75.9623 1.64531 73.7719 1.64531C71.5815 1.64531 71.555 1.64749 71.4207 1.8393ZM40.872 7.23664C38.7068 7.53143 36.512 8.60386 34.9064 10.1516C33.1348 11.8594 32.0092 14.0698 31.6165 16.6117C31.4387 17.7626 31.4814 19.8605 31.706 21.0027C32.4948 25.015 35.1197 28.0615 38.8623 29.3083C40.0278 29.6966 40.8049 29.8288 42.2857 29.8906C44.9807 30.0031 47.156 29.441 49.1435 28.1186C50.0157 27.5383 51.3781 26.2592 51.6178 25.7955C51.84 25.3658 51.7204 25.1801 50.8863 24.6597C50.4661 24.3975 49.7038 23.9227 49.1922 23.6045C48.6806 23.2862 48.1981 23.0259 48.12 23.0259C48.0419 23.0259 47.6162 23.3895 47.1739 23.8338C45.9023 25.1115 44.8125 25.5527 42.9228 25.5546C40.5247 25.5569 38.5421 24.4855 37.3555 22.5459C37.0558 22.0562 36.6828 20.9911 36.6142 20.4297L36.5688 20.0588H44.7443C52.1948 20.0588 52.938 20.0461 53.125 19.9151L53.3301 19.7713L53.2814 18.1915C53.2281 16.4704 53.1211 15.8283 52.6518 14.4151C51.4313 10.7392 48.5852 8.1704 44.8285 7.35393C44.0598 7.18681 41.7426 7.11813 40.872 7.23664ZM43.7518 11.4625C45.085 11.7407 46.5607 12.7072 47.2884 13.7789C47.7524 14.4621 48.2379 15.7341 48.2447 16.2845C48.2458 16.3707 47.028 16.3936 42.4428 16.3936C35.8143 16.3936 36.5031 16.4984 36.8029 15.5353C37.4079 13.591 39.2323 11.9247 41.2647 11.4597C41.925 11.3086 43.0203 11.3099 43.7518 11.4625Z" fill="white"/>
<rect x="85.1604" y="23.4619" width="6.28328" height="6.28328" rx="3.14164" fill="white"/>
</svg>
