<svg width="70" height="30" viewBox="0 0 70 30" fill="none" xmlns="http://www.w3.org/2000/svg">
<path d="M1.752 24V7.08H5.04L10.92 20.28H10.152L16.032 7.08H19.296V24H15.888V12.504H16.848L11.592 24H9.432L4.152 12.504H5.16V24H1.752Z" fill="#CAFC01"/>
<path d="M28.608 24.264C26.496 24.264 24.848 23.696 23.664 22.56C22.48 21.424 21.888 19.88 21.888 17.928C21.888 16.664 22.136 15.56 22.632 14.616C23.144 13.672 23.848 12.936 24.744 12.408C25.656 11.864 26.72 11.592 27.936 11.592C29.136 11.592 30.136 11.848 30.936 12.36C31.752 12.872 32.36 13.592 32.76 14.52C33.176 15.432 33.384 16.496 33.384 17.712V18.552H24.864V16.752H30.744L30.336 17.088C30.336 16.08 30.128 15.32 29.712 14.808C29.312 14.28 28.728 14.016 27.96 14.016C27.112 14.016 26.456 14.328 25.992 14.952C25.544 15.576 25.32 16.472 25.32 17.64V18.024C25.32 19.208 25.608 20.088 26.184 20.664C26.776 21.24 27.624 21.528 28.728 21.528C29.384 21.528 30 21.448 30.576 21.288C31.168 21.112 31.728 20.84 32.256 20.472L33.264 22.872C32.656 23.32 31.952 23.664 31.152 23.904C30.368 24.144 29.52 24.264 28.608 24.264ZM35.6833 24V6.336H39.3073V24H35.6833ZM49.7093 24.264C48.7333 24.264 47.8613 24.024 47.0933 23.544C46.3413 23.064 45.8373 22.424 45.5813 21.624H45.8453V24H42.2693V6.336H45.8933V14.112H45.5813C45.8533 13.344 46.3653 12.736 47.1172 12.288C47.8853 11.824 48.7493 11.592 49.7093 11.592C50.7813 11.592 51.7173 11.848 52.5173 12.36C53.3173 12.872 53.9413 13.6 54.3893 14.544C54.8533 15.488 55.0853 16.624 55.0853 17.952C55.0853 19.264 54.8533 20.392 54.3893 21.336C53.9413 22.28 53.3093 23.008 52.4933 23.52C51.6933 24.016 50.7653 24.264 49.7093 24.264ZM48.6293 21.528C49.4453 21.528 50.1173 21.24 50.6453 20.664C51.1733 20.088 51.4373 19.184 51.4373 17.952C51.4373 16.72 51.1733 15.808 50.6453 15.216C50.1173 14.624 49.4453 14.328 48.6293 14.328C47.7973 14.328 47.1173 14.616 46.5893 15.192C46.0773 15.768 45.8213 16.672 45.8213 17.904C45.8213 19.136 46.0773 20.048 46.5893 20.64C47.1173 21.232 47.7973 21.528 48.6293 21.528ZM57.0321 29.448L56.1921 26.616C56.9441 26.472 57.5761 26.304 58.0881 26.112C58.6161 25.92 59.0481 25.664 59.3841 25.344C59.7201 25.04 59.9921 24.64 60.2001 24.144L60.8001 22.728L60.7041 24.12L55.4241 11.832H59.2401L62.7201 20.64H61.9761L65.5041 11.832H69.1041L63.6081 24.48C63.2081 25.392 62.7761 26.144 62.3121 26.736C61.8641 27.344 61.3761 27.824 60.8481 28.176C60.3201 28.528 59.7361 28.8 59.0961 28.992C58.4721 29.184 57.7841 29.336 57.0321 29.448Z" fill="white"/>
</svg>
