<svg width="20" height="20" viewBox="0 0 20 20" fill="none" xmlns="http://www.w3.org/2000/svg">
<g opacity="0.6" clip-path="url(#clip0_636_838)">
<g clip-path="url(#clip1_636_838)">
<path d="M9.99999 4.25C5.83333 4.25 2.27499 6.84167 0.833328 10.5C2.27499 14.1583 5.83333 16.75 9.99999 16.75C14.1667 16.75 17.725 14.1583 19.1667 10.5C17.725 6.84167 14.1667 4.25 9.99999 4.25ZM9.99999 14.6667C7.69999 14.6667 5.83333 12.8 5.83333 10.5C5.83333 8.2 7.69999 6.33333 9.99999 6.33333C12.3 6.33333 14.1667 8.2 14.1667 10.5C14.1667 12.8 12.3 14.6667 9.99999 14.6667ZM9.99999 8C8.61666 8 7.49999 9.11667 7.49999 10.5C7.49999 11.8833 8.61666 13 9.99999 13C11.3833 13 12.5 11.8833 12.5 10.5C12.5 9.11667 11.3833 8 9.99999 8Z" fill="white"/>
</g>
<line x1="-2.53033" y1="21.9697" x2="22.4697" y2="-3.03033" stroke="white" stroke-width="1.5"/>
</g>
<defs>
<clipPath id="clip0_636_838">
<rect width="20" height="20" fill="white"/>
</clipPath>
<clipPath id="clip1_636_838">
<rect width="20" height="20" fill="white" transform="translate(0 0.5)"/>
</clipPath>
</defs>
</svg>
