<svg width="56" height="56" viewBox="0 0 56 56" fill="none" xmlns="http://www.w3.org/2000/svg">
<g clip-path="url(#clip0_1_1973)">
<path d="M39.5501 23.8702L26.3434 37.0769C25.4334 37.9869 23.9634 37.9869 23.0534 37.0769L16.4501 30.4736C15.5401 29.5636 15.5401 28.0936 16.4501 27.1836C17.3601 26.2736 18.8301 26.2736 19.7401 27.1836L24.6867 32.1302L36.2367 20.5802C37.1467 19.6702 38.6167 19.6702 39.5267 20.5802C40.4601 21.4902 40.4601 22.9602 39.5501 23.8702ZM9.33341 28.0002C9.33341 22.5636 11.7134 17.6869 15.4467 14.2802L19.0167 17.8502C19.7401 18.5736 21.0001 18.0602 21.0001 17.0102V7.00023C21.0001 6.3469 20.4867 5.83356 19.8334 5.83356H9.82341C8.77341 5.83356 8.26008 7.09356 9.00675 7.8169L12.1334 10.9669C7.56008 15.2136 4.66675 21.2569 4.66675 28.0002C4.66675 39.0836 12.4134 48.3702 22.7734 50.7502C24.2434 51.0769 25.6667 49.9802 25.6667 48.4636C25.6667 47.3669 24.8967 46.4336 23.8234 46.1769C15.5401 44.2869 9.33341 36.8669 9.33341 28.0002ZM51.3334 28.0002C51.3334 16.9169 43.5867 7.63023 33.2267 5.25023C31.7567 4.92356 30.3334 6.02023 30.3334 7.5369C30.3334 8.63356 31.1034 9.5669 32.1767 9.82356C40.4601 11.7136 46.6667 19.1336 46.6667 28.0002C46.6667 33.4369 44.2867 38.3136 40.5534 41.7202L36.9834 38.1502C36.2601 37.4269 35.0001 37.9402 35.0001 38.9902V49.0002C35.0001 49.6536 35.5134 50.1669 36.1667 50.1669H46.1768C47.2267 50.1669 47.7401 48.9069 46.9934 48.1836L43.8667 45.0336C48.4401 40.7869 51.3334 34.7436 51.3334 28.0002Z" fill="#B153E0"/>
</g>
<defs>
<clipPath id="clip0_1_1973">
<rect width="56" height="56" fill="white"/>
</clipPath>
</defs>
</svg>
