<svg width="107" height="49" viewBox="0 0 107 49" fill="none" xmlns="http://www.w3.org/2000/svg">
<path d="M39.5896 33.1533C38.8087 27.7785 35.8277 24.6705 30.7334 23.5955C31.3779 23.3268 31.9729 23.3869 32.5926 23.3837C33.3673 23.3837 34.142 23.3837 34.9105 23.4343C35.3598 23.4627 35.5643 23.3552 35.5798 22.8525C35.7224 18.8277 34.6223 15.2645 31.9636 12.2134C29.9277 9.89589 27.4425 8.33717 24.4801 7.77755C18.8001 6.69625 14.0032 8.35298 10.325 13.007C8.48318 15.3817 7.43204 18.294 7.32448 21.3203C7.21692 24.3466 8.05854 27.329 9.72691 29.8336C12.5158 34.0102 16.5101 36.1317 21.5022 36.2234C22.0321 36.2234 22.1219 35.9989 22.0321 35.5499C21.8406 34.4633 21.7678 33.3584 21.8152 32.2554C21.8152 32.0278 21.7842 31.7274 22.0785 31.6737C22.3729 31.6199 22.3698 31.9266 22.4659 32.0973C24.7342 36.1285 28.0003 38.7843 32.5275 39.7518C34.8069 40.1823 37.0237 40.9058 39.1248 41.9049C41.5371 43.1618 43.6781 44.8991 45.4215 47.0142C45.7097 47.3494 45.9947 47.6877 46.2674 48.0355C46.4565 48.2821 46.6982 48.554 46.379 48.8575C46.0598 49.161 45.7871 48.9587 45.5423 48.7626C44.9721 48.3105 44.433 47.8141 43.8628 47.3747C41.201 45.2658 38.2571 43.7482 34.895 43.236C32.6422 42.8914 30.3677 43.0463 28.1056 43.2075C24.2043 43.4921 20.2968 44.0201 16.4202 43.0147C10.4241 41.4623 5.80698 37.9844 2.7857 32.4799C-0.238688 26.909 -0.839846 21.0061 1.17125 14.9356C3.37756 8.2771 7.83047 3.79381 14.2542 1.32136C18.1453 -0.175871 22.3934 -0.416488 26.423 0.632114C32.3447 2.13392 36.8751 5.64024 39.9739 11.0373C41.9406 14.5122 42.9182 18.4781 42.7968 22.4889C42.7221 26.1278 41.7261 29.685 39.9057 32.815C39.8071 32.9342 39.7016 33.0472 39.5896 33.1533Z" fill="white"/>
<path d="M89.1202 14.2273L87.1618 20.1903C86.8519 21.1388 86.542 22.0873 86.2321 23.0358C86.1934 23.2563 86.0722 23.4528 85.8941 23.5837C85.716 23.7147 85.495 23.7699 85.2777 23.7377C84.5588 23.7029 83.8337 23.7377 83.1086 23.7377C82.9173 23.7578 82.7256 23.704 82.5713 23.587C82.4169 23.4699 82.3112 23.298 82.275 23.1053C80.6843 18.1963 79.0823 13.2967 77.4689 8.40661C77.379 8.13154 77.286 7.85963 77.2117 7.5814C77.097 7.15141 77.19 6.84789 77.7075 6.84789C78.7889 6.84789 79.8766 6.84789 80.955 6.84789C81.4786 6.84789 81.5561 7.23994 81.6708 7.6225C82.4517 10.2551 83.2346 12.8899 84.0196 15.5268C84.0909 15.7734 84.1839 16.0105 84.2799 16.2887C84.6673 16.1496 84.6239 15.805 84.7014 15.5679C85.6062 12.8635 86.4976 10.1561 87.3756 7.44545C87.4059 7.26472 87.505 7.10354 87.6513 6.99696C87.7975 6.89039 87.9791 6.84704 88.1565 6.87634C88.6213 6.90796 89.0861 6.87634 89.5509 6.87634C90.7718 6.87634 90.7315 6.89215 91.1158 8.10308C91.9803 10.8348 92.8914 13.5539 93.948 16.2792C94.1185 15.7765 94.3044 15.2801 94.4593 14.7743C95.1937 12.3429 95.9343 9.9179 96.6285 7.47707C96.7648 7.00281 96.9662 6.84473 97.4248 6.84473C98.404 6.8637 99.3864 6.84473 100.366 6.84473C101.187 6.84473 101.317 7.03759 101.05 7.85963C100.059 10.8949 99.0599 13.9269 98.0539 16.9558C97.3784 18.9698 96.6811 20.9775 96.0614 22.9947C95.8941 23.529 95.6431 23.7756 95.0729 23.7377C94.403 23.6997 93.7316 23.6997 93.0618 23.7377C92.5071 23.763 92.2406 23.5195 92.0702 22.9852C91.1808 20.1934 90.2574 17.4111 89.3433 14.6288C89.2766 14.4907 89.2021 14.3566 89.1202 14.2273Z" fill="white"/>
<path d="M67.5001 23.6844C67.0384 23.6844 66.5705 23.6844 66.1119 23.6844C65.881 23.7173 65.6458 23.6831 65.4331 23.5858C65.2205 23.4885 65.039 23.332 64.9096 23.1342C64.6493 22.7011 64.3611 22.7801 64.0047 22.9761C59.6851 25.3474 54.4822 23.8614 52.1644 19.3465C51.182 17.36 50.9709 15.0683 51.5732 12.9298C52.1755 10.7913 53.5469 8.9636 55.413 7.81225C57.2791 6.6609 59.5024 6.27076 61.6383 6.71985C63.7741 7.16894 65.6651 8.42417 66.933 10.2345C68.8264 13.08 69.0371 16.1469 67.5528 19.2517C67.2429 19.9251 67.3049 20.3108 67.7914 20.8104C68.4111 21.4585 68.972 22.1889 69.5577 22.8876C69.6909 23.0457 69.8676 23.2038 69.7963 23.4346C69.725 23.6654 69.4585 23.6591 69.2664 23.6654C68.6745 23.6844 68.0827 23.6654 67.4877 23.6654L67.5001 23.6844Z" fill="white"/>
<path d="M106.541 15.385C106.541 17.8764 106.526 20.3678 106.541 22.8592C106.541 23.5169 106.315 23.7572 105.686 23.735C104.89 23.7034 104.09 23.735 103.291 23.735C102.699 23.735 102.408 23.5169 102.411 22.8529C102.427 17.8132 102.427 12.7755 102.411 7.73999C102.411 7.05074 102.649 6.79148 103.319 6.84207C104.09 6.88317 104.862 6.88317 105.633 6.84207C106.303 6.80729 106.548 7.06655 106.541 7.75264C106.526 10.2946 106.541 12.8398 106.541 15.385Z" fill="white"/>
<path d="M75.6714 15.2772C75.6714 17.8065 75.6497 20.3169 75.6714 22.8368C75.6714 23.5261 75.4576 23.7853 74.7821 23.7379C74.0361 23.6889 73.2877 23.6889 72.5417 23.7379C71.8197 23.7853 71.6121 23.4818 71.6121 22.7894C71.6369 19.4285 71.6121 16.0708 71.6121 12.7099V8.12859C71.6121 6.8481 71.6121 6.8481 72.8299 6.84494C73.4744 6.84494 74.122 6.89237 74.7604 6.84494C75.5103 6.77538 75.69 7.11052 75.6683 7.79345C75.6528 10.288 75.6714 12.7826 75.6714 15.2772Z" fill="white"/>
<path d="M72.7804 37.2796C71.5161 37.2796 70.2549 37.2796 68.9906 37.2796C68.5165 37.2796 68.3058 37.1879 68.3151 36.6473C68.3491 34.8103 68.3584 32.9702 68.3151 31.1333C68.2965 30.4029 68.7148 30.5009 69.1517 30.5009C69.6382 30.4725 69.9078 30.5547 69.8892 31.1649C69.8458 32.5023 69.8892 33.8428 69.8644 35.1834C69.8644 35.6576 69.976 35.8157 70.4625 35.8157C71.9344 35.8157 71.9344 35.8442 71.9344 34.3613C71.9344 33.2832 71.9685 32.2051 71.9344 31.1301C71.9034 30.3744 72.3837 30.5199 72.802 30.5199C73.2204 30.5199 73.6294 30.3966 73.6015 31.108C73.5519 32.4707 73.6015 33.8397 73.5767 35.2182C73.5767 35.7177 73.7317 35.8284 74.1965 35.8315C75.6219 35.8315 75.6219 35.8568 75.6219 34.374C75.6219 33.299 75.656 32.2177 75.6219 31.1459C75.5909 30.4725 75.9721 30.5136 76.4028 30.5136C76.8335 30.5136 77.2859 30.3903 77.2704 31.1459C77.2333 33.0081 77.2457 34.8735 77.2704 36.7389C77.2704 37.1911 77.1155 37.327 76.6879 37.3175C75.3585 37.2669 74.0601 37.2796 72.7804 37.2796Z" fill="white"/>
<path d="M54.2281 35.2339C54.2048 35.6002 54.2048 35.9677 54.2281 36.3341C54.3272 37.0803 54.0669 37.3459 53.2984 37.3048C52.7314 37.2731 52.4959 37.1878 52.5051 36.527C52.5465 33.8796 52.5465 31.2311 52.5051 28.5816C52.5051 27.8829 52.784 27.8165 53.3263 27.8355C53.8686 27.8544 54.3024 27.7817 54.2281 28.5816C54.1769 29.3406 54.1769 30.1023 54.2281 30.8612C54.2281 31.1268 54.0235 31.5663 54.5224 31.6105C54.9067 31.6485 55.3374 31.7591 55.6039 31.2628C56.1059 30.3142 56.6606 29.4227 57.175 28.4931C57.4632 27.9683 58.6376 27.5446 59.0962 27.8829C59.434 28.12 59.0962 28.3761 58.9939 28.5405C58.3742 29.6756 57.7544 30.8011 57.0541 31.8888C56.9502 32.0163 56.8915 32.176 56.8876 32.3418C56.8837 32.5076 56.9347 32.67 57.0324 32.8025C57.773 34.0862 58.4795 35.3888 59.2263 36.6661C59.5083 37.1467 59.4216 37.2415 58.8824 37.2984C57.9714 37.3965 57.4229 37.1245 57.0541 36.2077C56.6854 35.2908 56.0718 34.4371 55.6101 33.5329C55.3529 33.0238 54.9346 33.1313 54.5441 33.1598C54.0483 33.1977 54.2343 33.6245 54.2343 33.8965C54.194 34.3391 54.2281 34.7786 54.2281 35.2339Z" fill="white"/>
<path d="M63.3044 30.3525C65.4116 30.3525 66.9393 31.8385 66.9764 33.9379C67.0074 35.8349 65.331 37.4158 63.2579 37.4158C61.1849 37.4158 59.7285 35.9045 59.7161 33.7197C59.713 31.8006 61.2314 30.3525 63.3044 30.3525Z" fill="white"/>
<path d="M82.4763 34.1809C81.9093 34.1809 81.3422 34.1999 80.7751 34.1809C80.2081 34.1619 80.1771 34.3769 80.4064 34.8322C80.5572 35.2113 80.828 35.5279 81.1755 35.7319C81.5231 35.9358 81.9275 36.0154 82.3245 35.9578C82.7612 35.9458 83.1878 35.8207 83.564 35.5942C83.9916 35.3096 84.1652 35.4677 84.4162 35.8187C84.7756 36.3277 84.6796 36.5806 84.1404 36.8842C82.56 37.7726 80.5427 37.5892 79.4334 36.3909C78.2558 35.1263 78.1939 33.1312 79.2815 31.5346C79.9818 30.5102 81.7915 30.0043 83.0589 30.5576C84.441 31.1583 84.8407 32.306 84.8128 33.7509C84.8128 34.0671 84.6672 34.2094 84.3294 34.1936C83.7127 34.1619 83.093 34.1809 82.4763 34.1809Z" fill="white"/>
<path d="M97.2109 34.1812C96.6191 34.1812 96.0272 34.1812 95.4354 34.1812C94.9705 34.1812 94.9117 34.3488 95.0666 34.7535C95.5469 35.9897 96.7864 36.3344 98.3234 35.5629C98.6828 35.3859 98.844 35.4143 99.0733 35.7368C99.4544 36.2775 99.4296 36.5747 98.7913 36.9224C97.2233 37.7729 95.1968 37.5548 94.0998 36.3407C92.9316 35.0412 92.9006 33.0399 94.0192 31.4906C94.7567 30.4726 96.5385 30.0363 97.8121 30.5643C98.9524 31.0354 99.693 32.4866 99.504 33.8018C99.4575 34.118 99.3429 34.1939 99.064 34.1876C98.4473 34.1718 97.8276 34.1812 97.2109 34.1812Z" fill="white"/>
<path d="M91.8781 33.89C91.8781 34.8385 91.8533 35.787 91.8781 36.7355C91.906 37.5323 91.3482 37.2604 90.9732 37.2857C90.5983 37.311 90.1397 37.4311 90.1614 36.7197C90.2016 35.3065 90.1614 33.89 90.183 32.4736C90.183 31.9835 90.0343 31.7843 89.5633 31.8728C89.1822 31.9456 88.5841 31.5756 88.5872 32.4356C88.6095 33.3261 88.5178 34.2157 88.3145 35.082C88.2102 35.5699 87.9842 36.0221 87.6585 36.3948C87.3328 36.7676 86.9184 37.0483 86.4552 37.2098C86.2042 37.2983 85.7487 37.4912 85.6837 37.0833C85.6186 36.6755 85.3521 36.0526 85.8944 35.7554C86.1266 35.626 86.3275 35.4453 86.4824 35.2265C86.6374 35.0077 86.7424 34.7563 86.7899 34.4907C87.0081 33.4387 87.079 32.3603 87.0006 31.2879C86.9789 30.6303 87.2175 30.4849 87.8063 30.507C88.9115 30.5449 90.0178 30.5449 91.1251 30.507C91.6859 30.4849 91.9091 30.6303 91.875 31.2437C91.8409 32.1068 91.8781 32.9984 91.8781 33.89Z" fill="white"/>
<path d="M107 37.1976C105.85 37.4284 104.936 37.3968 104.437 36.1859C104.193 35.7272 103.918 35.2857 103.616 34.8643C103.536 34.7267 103.412 34.6207 103.265 34.5633C103.119 34.506 102.957 34.5006 102.807 34.5481C102.414 34.605 102.553 34.9402 102.541 35.1804C102.522 35.5725 102.541 35.9677 102.541 36.3629C102.546 36.5412 102.503 36.7175 102.418 36.8731C102.332 37.0288 102.207 37.158 102.056 37.2471C101.904 37.3361 101.732 37.3818 101.557 37.3792C101.382 37.3766 101.212 37.3259 101.063 37.2324C100.833 37.1028 100.864 36.8846 100.864 36.6822C100.864 34.8168 100.883 32.9546 100.864 31.0892C100.864 30.343 101.332 30.4916 101.751 30.4853C102.169 30.479 102.615 30.3873 102.559 31.0766C102.533 31.522 102.533 31.9686 102.559 32.414C102.559 32.6479 102.429 32.9862 102.823 33.0463C102.969 33.0943 103.126 33.089 103.269 33.0313C103.411 32.9736 103.53 32.8672 103.604 32.7301C103.96 32.0978 104.378 31.5097 104.781 30.909C105.007 30.5707 106.259 30.3114 106.572 30.5296C106.811 30.6908 106.625 30.8458 106.535 30.9817C106.104 31.633 105.702 32.3096 105.221 32.9198C104.741 33.53 104.794 33.9569 105.221 34.5291C105.819 35.3733 106.377 36.2681 107 37.1976Z" fill="white"/>
<path d="M33.2744 38.1936C31.976 38.2157 30.7954 36.736 31.0711 35.4524C31.104 35.2906 31.1684 35.1373 31.2605 35.0014C31.3526 34.8656 31.4705 34.75 31.6072 34.6615C31.7439 34.573 31.8966 34.5135 32.0563 34.4864C32.216 34.4593 32.3794 34.4653 32.5369 34.5039C32.918 34.572 33.2819 34.7173 33.6071 34.9313C33.9322 35.1452 34.2121 35.4235 34.4302 35.7496C34.7742 36.2175 35.0499 36.7329 34.7401 37.3304C34.6041 37.6038 34.3932 37.831 34.1329 37.9842C33.8727 38.1375 33.5744 38.2102 33.2744 38.1936Z" fill="white"/>
<path d="M38.2293 33.4943C38.26 33.6704 38.2318 33.8519 38.1492 34.0096C38.0665 34.1673 37.9343 34.2921 37.7738 34.3638C37.4174 34.5345 37.2346 34.0824 37.0146 33.8453C36.5266 33.339 36.2022 32.6925 36.085 31.9925C36.0168 31.5689 35.992 31.1231 36.4661 30.9144C36.9402 30.7057 37.3245 30.9397 37.6095 31.3064C38.062 31.9072 38.1859 32.628 38.2293 33.4943Z" fill="white"/>
<path d="M62.1579 16.9178C61.7706 16.9178 61.3864 16.9178 60.999 16.9178C60.7294 16.9178 60.3793 16.8103 60.246 17.1486C60.1283 17.4363 60.4133 17.6102 60.5745 17.8031C60.9339 18.2489 61.2996 18.6883 61.6559 19.131C61.941 19.4851 61.9038 19.6811 61.4328 19.8487C60.7557 20.106 60.0281 20.194 59.3108 20.1053C58.5935 20.0166 57.9075 19.7538 57.3102 19.3388C56.713 18.9239 56.2219 18.369 55.8782 17.7206C55.5344 17.0721 55.348 16.3491 55.3345 15.612C55.2539 13.1965 56.4191 11.2362 58.3868 10.6134C60.0136 10.1012 61.5599 10.2972 62.8304 11.5619C63.48 12.167 63.9586 12.9388 64.2164 13.7968C64.4742 14.6549 64.5017 15.5678 64.2961 16.4404C64.2852 16.5186 64.259 16.5939 64.219 16.6616C64.179 16.7293 64.126 16.788 64.0633 16.8344C64.0005 16.8807 63.9292 16.9137 63.8537 16.9312C63.7781 16.9488 63.6999 16.9507 63.6237 16.9368C63.1372 16.9083 62.6475 16.9178 62.1579 16.9178Z" fill="#B153E0"/>
<path d="M65.2751 33.8302C65.2846 34.0972 65.2418 34.3636 65.1491 34.6135C65.0564 34.8635 64.9158 35.092 64.7354 35.2858C64.555 35.4796 64.3385 35.6346 64.0986 35.7419C63.8587 35.8492 63.6003 35.9065 63.3384 35.9106C62.071 35.8695 61.4574 35.1802 61.38 33.8934C61.3543 33.6264 61.383 33.3568 61.4642 33.1016C61.5455 32.8464 61.6775 32.6111 61.8521 32.4104C62.0266 32.2098 62.24 32.048 62.4787 31.9354C62.7174 31.8229 62.9763 31.7618 63.2392 31.7561C63.5075 31.7518 63.7738 31.8026 64.0225 31.9052C64.2712 32.0079 64.4972 32.1605 64.687 32.3539C64.8768 32.5473 65.0267 32.7776 65.1277 33.0312C65.2288 33.2848 65.2789 33.5565 65.2751 33.8302Z" fill="#B153E0"/>
<path d="M81.6398 33.0115C81.4105 33.0115 81.1781 33.0115 80.9488 33.0115C80.7195 33.0115 80.422 33.1348 80.3291 32.904C80.2361 32.6732 80.4344 32.3602 80.6235 32.1515C81.3145 31.399 82.6129 31.4844 82.9754 32.3033C83.1644 32.7301 83.2047 33.0716 82.5633 33.021C82.2534 32.9925 81.9466 33.0115 81.6398 33.0115Z" fill="#B153E0"/>
<path d="M96.2999 33.0142C96.1216 33.03 95.9422 33.03 95.7639 33.0142C95.5098 32.9668 95.11 33.1945 95.0263 32.8562C94.9427 32.5179 95.1937 32.2238 95.4757 32.012C96.2658 31.3796 97.3783 31.5535 97.6944 32.3471C97.8493 32.7423 97.8896 33.068 97.2946 33.0237C96.9631 32.9953 96.6315 33.0142 96.2999 33.0142Z" fill="#B153E0"/>
</svg>
