<svg width="190" height="21" viewBox="0 0 190 21" fill="none" xmlns="http://www.w3.org/2000/svg">
<g clip-path="url(#clip0_1_1869)">
<path d="M148.927 0.0973382C147.941 1.49422 147.066 2.71551 146.22 3.95631C145.962 4.3465 145.607 4.29188 145.239 4.29188C142.891 4.29188 140.54 4.29188 138.193 4.29188C136.967 4.29188 136.177 4.81473 135.883 5.69266C135.773 5.99987 135.742 6.32767 135.791 6.64885C135.841 6.97003 135.97 7.27531 136.168 7.53934C136.365 7.80337 136.626 8.01853 136.929 8.16696C137.232 8.31539 137.567 8.3928 137.907 8.39277C139.265 8.463 140.626 8.41618 141.996 8.42008C147.447 8.42008 150.607 13.3872 147.97 17.8939C146.796 19.9034 144.821 20.8983 142.417 20.9413C139.015 20.9998 135.613 20.9413 132.195 20.9413C131.978 20.9413 131.688 21.07 131.553 20.8125C131.418 20.555 131.712 20.4223 131.835 20.2467C132.616 19.1269 133.172 17.6871 134.256 16.9808C135.339 16.2746 137.024 16.8053 138.439 16.7545C139.665 16.7155 140.892 16.7545 142.119 16.7545C143.501 16.735 144.474 15.9039 144.511 14.749C144.547 13.594 143.587 12.6966 142.127 12.6263C140.365 12.5444 138.598 12.7785 136.84 12.4898C135.285 12.2681 133.869 11.5105 132.859 10.3602C131.849 9.20992 131.316 7.74657 131.361 6.24673C131.483 2.78184 134.076 0.261218 137.69 0.132455C141.305 0.00369274 145.03 0.0973382 148.927 0.0973382Z" fill="white"/>
<path d="M167.261 0.0933894C166.317 1.44735 165.462 2.66084 164.628 3.88993C164.509 4.04246 164.347 4.15994 164.161 4.22893C163.976 4.29793 163.773 4.31567 163.577 4.28012C161.159 4.28012 158.744 4.28012 156.332 4.28012C155.888 4.25688 155.448 4.37228 155.079 4.60885C154.71 4.84542 154.432 5.19026 154.287 5.59116C154.109 5.99467 154.075 6.44323 154.192 6.86678C154.309 7.29033 154.57 7.66501 154.933 7.9323C155.461 8.38101 156.111 8.37321 156.753 8.40052C158.515 8.47466 160.286 8.24445 162.04 8.56831C163.522 8.87295 164.849 9.6567 165.796 10.7871C166.743 11.9175 167.252 13.3252 167.237 14.7723C167.155 17.8665 164.869 20.4574 161.766 20.8203C158.662 21.1831 155.657 20.8905 152.599 20.9607C151.887 20.9607 151.171 20.9607 150.46 20.9607C149.81 20.9607 149.757 20.8164 150.133 20.3169C150.875 19.3653 151.566 18.3782 152.202 17.3593C152.318 17.1512 152.497 16.9814 152.716 16.872C152.935 16.7627 153.183 16.719 153.429 16.7467C155.706 16.7662 157.988 16.7038 160.261 16.774C161.897 16.8247 162.796 15.8102 162.804 14.7294C162.804 13.473 161.831 12.677 160.302 12.6185C158.577 12.5521 156.839 12.798 155.117 12.4702C151.711 11.8186 149.393 9.06385 149.663 6.01647C149.978 2.56719 152.648 0.163624 156.307 0.0972913C159.91 0.0543705 163.479 0.0933894 167.261 0.0933894Z" fill="white"/>
<path d="M92.4955 8.28782L96.932 3.7226C97.4093 3.31106 97.8422 2.85485 98.2241 2.36084C99.5489 0.230403 101.561 -0.210511 103.949 0.0821313C104.629 0.120328 105.312 0.120328 105.993 0.0821313C105.455 0.865088 104.817 1.58191 104.096 2.21647C102.023 4.3469 99.9496 6.48124 97.807 8.54924C97.2591 9.0799 97.3409 9.37254 97.7416 9.87979C100.427 13.2822 103.101 16.6951 105.764 20.1184C105.932 20.3369 106.308 20.5086 106.136 20.8363C105.997 21.086 105.641 20.9417 105.384 20.9456C104.263 20.9456 103.139 20.9261 102.019 20.9456C101.786 20.9609 101.553 20.9152 101.345 20.8134C101.138 20.7116 100.963 20.5576 100.841 20.3681C98.8578 17.8319 96.8297 15.3307 94.863 12.7867C94.3641 12.1429 94.1801 12.2873 93.6118 12.7867C92.5159 13.7388 92.4505 14.8586 92.5037 16.1111C92.5609 17.5002 92.5037 18.8893 92.5037 20.2744C92.5037 20.77 92.3687 20.9651 91.8208 20.9456C90.7986 20.9091 89.7777 20.9091 88.7582 20.9456C88.1449 20.969 88.0263 20.7075 88.0304 20.1925C88.0304 13.7388 88.0304 7.28243 88.0304 0.823491C88.0304 0.226501 88.2266 0.0431123 88.8482 0.0431123C89.7612 0.105242 90.6773 0.116967 91.5918 0.0782294C92.3033 0.0353085 92.52 0.238207 92.5077 0.928842C92.4669 3.28559 92.4955 5.64233 92.4955 8.28782Z" fill="white"/>
<path d="M59.036 9.81365C58.6639 9.51711 58.5167 9.32982 58.7375 8.8772C60.6429 4.93238 57.6989 -0.0386311 52.3015 0.0550144C49.9218 0.0940334 47.5379 0.0940334 45.1582 0.0550144C44.3404 0.0550144 44.0623 0.207188 44.0746 1.04219C44.1319 4.16371 44.0991 7.30864 44.0991 10.4419C44.0991 13.6726 44.1196 16.9034 44.0991 20.1303C44.0991 20.8092 44.2913 21.0043 45.0069 20.9965C48.278 20.9614 51.5492 20.9965 54.8203 20.9731C56.2028 20.9948 57.5576 20.6016 58.6933 19.849C59.8291 19.0964 60.6884 18.0223 61.1499 16.7785C61.6013 15.5521 61.6402 14.2218 61.2612 12.9732C60.8823 11.7246 60.1043 10.6201 59.036 9.81365ZM49.153 4.29247C49.7623 4.31979 50.3797 4.29247 50.9849 4.29247C51.5287 4.29247 52.0725 4.29247 52.6205 4.29247C53.933 4.33539 54.8898 5.1782 54.9143 6.28244C54.9123 6.83698 54.6825 7.36864 54.2742 7.76331C53.866 8.15797 53.3119 8.38418 52.7309 8.39336C51.5492 8.44799 50.3593 8.39336 49.1735 8.41677C48.691 8.41677 48.507 8.2607 48.5193 7.80418C48.5438 6.83651 48.5193 5.85323 48.5193 4.90507C48.4988 4.46806 48.6583 4.29247 49.153 4.29247ZM54.8326 16.7551C54.3582 16.7551 53.8798 16.7551 53.4055 16.7551H52.0807C51.128 16.7551 50.1753 16.7356 49.2185 16.7551C48.6992 16.7551 48.4825 16.6147 48.4988 16.0957C48.5315 15.1619 48.5315 14.2267 48.4988 13.2902C48.4988 12.7947 48.6542 12.6074 49.1939 12.6152C51.0953 12.6386 53.0007 12.5918 54.9184 12.6152C55.2067 12.6126 55.4925 12.6648 55.7594 12.7687C56.0263 12.8727 56.2688 13.0263 56.4728 13.2206C56.6768 13.4149 56.8382 13.646 56.9476 13.9005C57.057 14.155 57.1123 14.4277 57.1101 14.7027C57.0909 15.2623 56.8407 15.792 56.4141 16.1764C55.9876 16.5608 55.4191 16.7688 54.8326 16.7551Z" fill="white"/>
<path d="M189.939 14.3436C189.939 13.9534 189.939 13.5632 189.939 13.173C189.894 11.3352 190.192 9.46623 189.796 7.66746C189.084 4.4523 186.933 2.25163 183.83 0.905476C177.893 -1.64246 170.545 1.95118 169.69 8.08106C169.102 12.1702 169.584 16.3336 169.498 20.4618C169.498 20.93 169.756 20.9729 170.14 20.969C171.126 20.969 172.115 20.9261 173.096 20.969C173.751 21.0002 173.914 20.7544 173.886 20.1886C173.845 19.2522 173.886 18.3157 173.886 17.3793C173.886 16.9423 173.992 16.7472 174.507 16.7511C178.007 16.7667 181.509 16.7667 185.012 16.7511C185.494 16.7511 185.67 16.8915 185.658 17.3559C185.629 18.3587 185.658 19.3575 185.658 20.3603C185.658 20.8246 185.817 20.9807 186.304 20.969C187.289 20.9417 188.275 20.93 189.26 20.969C189.857 20.9963 190.008 20.7817 190 20.2472C189.918 18.2806 189.939 16.3141 189.939 14.3436ZM184.918 12.6385C183.184 12.6151 181.454 12.6385 179.725 12.6385H174.63C174.307 12.6385 173.869 12.7282 173.873 12.2483C173.898 10.5275 173.612 8.7795 174.573 7.17582C175.214 6.14306 176.176 5.32573 177.325 4.83653C178.474 4.34733 179.754 4.21036 180.988 4.4445C183.724 5.0649 185.531 7.07827 185.609 9.6106C185.633 10.4144 185.584 11.2221 185.609 12.0259C185.637 12.5136 185.437 12.6463 184.918 12.6385Z" fill="white"/>
<path d="M129.132 14.4093C129.132 12.8486 129.132 11.3112 129.132 9.75827C129.168 8.21943 128.796 6.6969 128.05 5.33197C127.305 3.96704 126.21 2.80393 124.868 1.95058C118.579 -2.3181 109.583 1.18971 108.765 8.41211C108.307 12.3999 108.651 16.4734 108.622 20.508C108.622 20.9294 108.868 20.9684 109.211 20.9645C110.233 20.9645 111.256 20.9333 112.274 20.9645C112.879 20.9879 113.026 20.7499 113.006 20.2271C112.973 19.2906 113.006 18.3541 113.006 17.4177C113.006 16.93 113.128 16.7388 113.684 16.7427C117.157 16.7661 120.627 16.7661 124.095 16.7427C124.643 16.7427 124.798 16.9182 124.782 17.4138C124.749 18.3502 124.814 19.2867 124.757 20.2232C124.72 20.8436 124.97 21.0035 125.575 20.9645C126.423 20.9138 127.274 20.9138 128.122 20.9645C128.899 21.0191 129.19 20.8123 129.161 20.0164C129.091 18.159 129.132 16.2822 129.132 14.4093ZM124.078 12.634C122.341 12.634 120.607 12.634 118.869 12.634H113.766C113.435 12.634 113.006 12.7081 113.018 12.2204C113.059 10.4684 112.736 8.68525 113.762 7.03084C114.411 6.05688 115.344 5.28595 116.448 4.81361C117.551 4.34128 118.775 4.1883 119.969 4.37365C122.463 4.83408 124.467 6.78502 124.7 9.07934C124.802 10.0704 124.724 11.081 124.769 12.0799C124.79 12.5871 124.512 12.6379 124.078 12.634Z" fill="white"/>
<path d="M12.9496 13.9223C12.5816 13.4228 12.7084 13.2707 13.244 13.0639C14.1978 12.7178 15.0571 12.1701 15.7575 11.4619C16.4579 10.7537 16.9811 9.90335 17.288 8.97466C18.7722 4.60844 15.2844 0.168087 10.3654 0.0978528C7.23739 0.05103 4.08892 0.109558 0.977253 0.0705395C0.216713 0.0627357 0 0.253929 0 0.987485C0.0408892 4.44456 0.0204446 7.89774 0.0204446 11.3548C0.0204446 14.2617 0.0449782 17.1686 0.0204446 20.0756C0.0204446 20.8169 0.253513 21.0315 1.00588 20.9808C1.88815 20.9261 2.77322 20.9261 3.6555 20.9808C4.32199 21.0159 4.53053 20.8169 4.51826 20.1731C4.47737 18.1714 4.49782 16.1659 4.51826 14.1642C4.51826 13.9067 4.35879 13.5789 4.74315 13.3838C5.59365 12.9936 7.56451 13.4892 8.11651 14.2617C9.57217 16.2868 11.0156 18.3197 12.4835 20.337C12.6798 20.6101 12.8147 20.9652 13.3013 20.9574C14.8183 20.9574 16.3393 20.9574 18.0649 20.9574C16.2576 18.4914 14.6261 16.1932 12.9496 13.9223ZM10.2428 9.43119C9.42497 9.4546 8.60718 9.43119 7.6054 9.43119C6.72628 9.34144 5.33604 9.8721 4.66546 9.22438C3.99488 8.57667 4.49782 7.32806 4.49782 6.33698C4.49782 5.5566 4.14617 4.57333 4.63275 4.09339C5.11933 3.61346 6.2397 3.94902 7.0861 3.91781C8.12469 3.9022 9.17963 3.9022 10.2223 3.9022C11.9846 3.96073 13.2318 5.11959 13.2522 6.66474C13.2726 8.20989 12.0092 9.38436 10.2428 9.43119Z" fill="white"/>
<path d="M74.2467 0.085572C72.7959 0.070641 71.3563 0.329473 70.0106 0.847191C68.6649 1.36491 67.4397 2.13131 66.4054 3.10233C65.3711 4.07336 64.5481 5.22987 63.9837 6.50539C63.4194 7.78092 63.1247 9.1503 63.1167 10.5348C63.1382 13.3113 64.3075 15.9675 66.3703 17.9257C68.4331 19.8839 71.2226 20.9858 74.1323 20.9919C80.143 20.9919 85.1396 16.2823 85.1437 10.6285C85.159 7.85285 84.0206 5.18463 81.9781 3.20844C79.9355 1.23226 77.1554 0.109284 74.2467 0.085572ZM74.1282 16.7779C73.2345 16.8344 72.3383 16.7152 71.4949 16.4277C70.6515 16.1402 69.879 15.6906 69.2251 15.1066C68.5712 14.5226 68.05 13.8167 67.6936 13.0327C67.3373 12.2486 67.1534 11.4031 67.1534 10.5485C67.1534 9.69389 67.3373 8.84838 67.6936 8.06434C68.05 7.28029 68.5712 6.57442 69.2251 5.99043C69.879 5.40645 70.6515 4.95678 71.4949 4.6693C72.3383 4.38182 73.2345 4.26263 74.1282 4.31913C75.0218 4.26263 75.918 4.38182 76.7614 4.6693C77.6048 4.95678 78.3774 5.40645 79.0312 5.99043C79.6851 6.57442 80.2063 7.28029 80.5627 8.06434C80.9191 8.84838 81.1029 9.69389 81.1029 10.5485C81.1029 11.4031 80.9191 12.2486 80.5627 13.0327C80.2063 13.8167 79.6851 14.5226 79.0312 15.1066C78.3774 15.6906 77.6048 16.1402 76.7614 16.4277C75.918 16.7152 75.0218 16.8344 74.1282 16.7779Z" fill="white"/>
<path d="M30.5525 0.0854273C29.094 0.0722707 27.6475 0.337604 26.2981 0.865816C24.9487 1.39403 23.7236 2.17445 22.6949 3.16116C21.6662 4.14788 20.8547 5.32095 20.3082 6.61137C19.7616 7.90179 19.4911 9.28349 19.5124 10.6752C19.5124 16.4032 24.5336 20.9957 30.5525 20.9879C33.4205 20.935 36.1524 19.8106 38.1611 17.8564C40.1698 15.9022 41.2951 13.274 41.2951 10.5367C41.2951 7.79927 40.1698 5.17112 38.1611 3.21689C36.1524 1.26266 33.4205 0.138312 30.5525 0.0854273ZM30.4421 16.7543C28.6979 16.745 27.029 16.0752 25.8022 14.8921C24.5754 13.7089 23.8911 12.1094 23.8998 10.445C23.8998 7.04641 26.9256 4.26046 30.6016 4.29947C31.4975 4.25158 32.3943 4.38009 33.236 4.67701C34.0777 4.97394 34.8464 5.43294 35.4943 6.02546C36.1421 6.61798 36.6554 7.33135 37.002 8.12122C37.3486 8.91109 37.5213 9.76057 37.5092 10.6168C37.4971 11.4731 37.3005 12.3178 36.9317 13.0985C36.5629 13.8792 36.0298 14.5791 35.3654 15.1547C34.701 15.7304 33.9196 16.1695 33.0698 16.4446C32.2201 16.7198 31.32 16.8252 30.4257 16.7543H30.4421Z" fill="white"/>
</g>
<defs>
<clipPath id="clip0_1_1869">
<rect width="190" height="21" fill="white"/>
</clipPath>
</defs>
</svg>
