<svg width="43" height="36" viewBox="0 0 43 36" fill="none" xmlns="http://www.w3.org/2000/svg">
<rect x="0.446045" width="42" height="36" rx="8" fill="#131218"/>
<path fill-rule="evenodd" clip-rule="evenodd" d="M21.2236 8.01761C21.1868 8.0332 20.8659 8.22114 20.5105 8.4352C18.3555 9.73306 15.995 10.5611 13.9466 10.7375C13.5583 10.771 13.3815 10.861 13.2137 11.1105C13.1257 11.2415 13.1124 11.3176 13.1128 11.6902C13.1146 13.4454 13.5278 16.4741 14.025 18.376C15.225 22.9673 17.3301 26.0705 20.2321 27.5262C20.7896 27.8058 21.2873 28 21.4464 28C21.7264 28 22.8361 27.4805 23.5188 27.0299C24.5104 26.3752 25.3689 25.5434 26.1436 24.4868C27.7319 22.3205 28.8752 19.2243 29.4221 15.6085C29.6423 14.1532 29.8371 11.7096 29.7637 11.3253C29.7238 11.1164 29.5108 10.8663 29.3214 10.8059C29.243 10.7809 28.9682 10.7385 28.7108 10.7116C27.6518 10.6012 26.2601 10.2449 25.1009 9.78742C24.3427 9.48821 23.072 8.85441 22.3377 8.40916C21.8226 8.09677 21.6508 8.01444 21.491 8.00327C21.3807 7.99554 21.2603 8.00198 21.2236 8.01761ZM21.5601 10.4836C21.5833 10.5054 21.8631 10.6646 22.1818 10.8373C23.5837 11.5972 25.2511 12.227 26.8167 12.5878C27.1599 12.6669 27.4668 12.7393 27.4987 12.7487C27.563 12.7677 27.5616 12.7899 27.413 14.1294C26.9718 18.105 25.8292 21.3957 24.1634 23.4881C23.7852 23.9631 23.0883 24.6467 22.6497 24.9726C22.2646 25.2588 21.5502 25.6771 21.4464 25.6771C21.3426 25.6771 20.6282 25.2588 20.2431 24.9726C19.8046 24.6467 19.1077 23.9631 18.7295 23.4881C17.1892 21.5534 16.1094 18.636 15.5881 15.0005C15.4618 14.12 15.3303 12.8199 15.3622 12.7681C15.3738 12.7493 15.469 12.7204 15.5737 12.7038C16.3096 12.5873 18.1218 12.0284 19.0621 11.628C19.6937 11.359 20.6196 10.9026 21.0453 10.6504C21.3893 10.4466 21.4868 10.415 21.5601 10.4836ZM18.2376 14.1207C18.0188 14.1898 17.6458 14.5771 17.5787 14.8046C17.4552 15.2235 17.5423 15.5574 17.8572 15.8731C18.1202 16.1366 18.3113 16.2066 18.7684 16.2066C19.0487 16.2066 19.102 16.2202 19.1978 16.3163C19.2668 16.3854 19.3072 16.477 19.3072 16.564C19.3072 16.651 19.2668 16.7426 19.1978 16.8117C19.0913 16.9185 19.0705 16.9214 18.4158 16.9214C17.7612 16.9214 17.7404 16.9243 17.6339 17.031C17.5649 17.1001 17.5245 17.1917 17.5245 17.2787C17.5245 17.3658 17.5649 17.4573 17.6339 17.5264C17.7404 17.6332 17.7609 17.6361 18.4198 17.6361C19.2509 17.6361 19.3917 17.5991 19.6875 17.3026C20.1384 16.8506 20.1384 16.2773 19.6875 15.8254C19.4246 15.5618 19.2334 15.4919 18.7763 15.4919C18.496 15.4919 18.4428 15.4783 18.347 15.3822C18.2022 15.2371 18.2022 15.0318 18.347 14.8868C18.4535 14.78 18.4743 14.7771 19.1289 14.7771C19.7836 14.7771 19.8044 14.7742 19.9108 14.6674C19.9798 14.5983 20.0203 14.5067 20.0203 14.4197C20.0203 14.3327 19.9798 14.2411 19.9108 14.172C19.8035 14.0644 19.7883 14.0624 19.0975 14.0669C18.7103 14.0694 18.3234 14.0937 18.2376 14.1207ZM21.0899 14.1207C20.8711 14.1898 20.4981 14.5771 20.431 14.8046C20.3075 15.2235 20.3946 15.5574 20.7095 15.8731C20.9725 16.1366 21.1636 16.2066 21.6207 16.2066C21.901 16.2066 21.9542 16.2202 22.0501 16.3163C22.1191 16.3854 22.1595 16.477 22.1595 16.564C22.1595 16.651 22.1191 16.7426 22.0501 16.8117C21.9436 16.9185 21.9228 16.9214 21.2681 16.9214C20.6135 16.9214 20.5927 16.9243 20.4862 17.031C20.4172 17.1001 20.3768 17.1917 20.3768 17.2787C20.3768 17.3658 20.4172 17.4573 20.4862 17.5264C20.5927 17.6332 20.6132 17.6361 21.2721 17.6361C21.6729 17.6361 22.0233 17.614 22.132 17.5818C22.3768 17.5093 22.746 17.1392 22.8184 16.8938C22.9418 16.475 22.8548 16.1411 22.5398 15.8254C22.2769 15.5618 22.0857 15.4919 21.6286 15.4919C21.3483 15.4919 21.2951 15.4783 21.1993 15.3822C21.0545 15.2371 21.0545 15.0318 21.1993 14.8868C21.3058 14.78 21.3266 14.7771 21.9812 14.7771C22.6359 14.7771 22.6567 14.7742 22.7631 14.6674C22.8321 14.5983 22.8726 14.5067 22.8726 14.4197C22.8726 14.3327 22.8321 14.2411 22.7631 14.172C22.6558 14.0644 22.6406 14.0624 21.9498 14.0669C21.5626 14.0694 21.1757 14.0937 21.0899 14.1207ZM23.3361 14.1744L23.2243 14.2864L23.2379 15.6631L23.2514 17.0398L23.3709 17.2207C23.4367 17.3203 23.567 17.4495 23.6606 17.5078C23.8158 17.6044 23.8885 17.6151 24.4861 17.629C25.1379 17.6441 25.142 17.6436 25.2549 17.5305C25.4037 17.3813 25.4053 17.1778 25.2589 17.031C25.1546 16.9264 25.1241 16.9214 24.5993 16.9214C24.2308 16.9214 24.0315 16.9037 23.9956 16.8678C23.9566 16.8286 23.9422 16.4732 23.9422 15.5479V14.2816L23.8328 14.172C23.6871 14.0259 23.4833 14.0269 23.3361 14.1744ZM21.1122 19.1252C20.5214 19.3202 20.193 19.7043 20.0457 20.3723C20.0306 20.4407 19.9885 20.4951 19.9505 20.4951C19.9131 20.4951 19.8333 20.5445 19.7731 20.6048C19.6646 20.7135 19.6637 20.7213 19.6637 21.5672C19.6637 22.4131 19.6646 22.421 19.7731 22.5297L19.8825 22.6394H21.4464H23.0103L23.1197 22.5297C23.2282 22.421 23.2291 22.4131 23.2291 21.5672C23.2291 20.7213 23.2282 20.7135 23.1197 20.6048C23.0595 20.5445 22.9797 20.4951 22.9423 20.4951C22.9043 20.4951 22.8624 20.4409 22.8474 20.3723C22.7207 19.7926 22.4541 19.4314 21.9925 19.214C21.7105 19.0812 21.3543 19.0452 21.1122 19.1252ZM21.7319 19.8816C21.9337 19.9972 22.0535 20.145 22.1119 20.3499L22.1532 20.4951H21.4464H20.7396L20.7761 20.3673C20.8503 20.1082 20.9571 19.9784 21.2014 19.8507C21.3838 19.7554 21.5262 19.7637 21.7319 19.8816Z" fill="white"/>
</svg>
