<svg width="56" height="56" viewBox="0 0 56 56" fill="none" xmlns="http://www.w3.org/2000/svg">
<g clip-path="url(#clip0_1_1967)">
<path d="M28.0001 4.66699C15.1667 4.66699 4.66675 15.167 4.66675 28.0003C4.66675 40.8337 15.1667 51.3337 28.0001 51.3337C40.8334 51.3337 51.3334 40.8337 51.3334 28.0003C51.3334 15.167 40.8334 4.66699 28.0001 4.66699ZM28.0001 46.667C17.7101 46.667 9.33341 38.2903 9.33341 28.0003C9.33341 17.7103 17.7101 9.33366 28.0001 9.33366C38.2901 9.33366 46.6667 17.7103 46.6667 28.0003C46.6667 38.2903 38.2901 46.667 28.0001 46.667ZM29.1667 16.3337H25.6667V30.3337L37.8001 37.8003L39.6667 34.767L29.1667 28.467V16.3337Z" fill="#B153E0"/>
</g>
<defs>
<clipPath id="clip0_1_1967">
<rect width="56" height="56" fill="white"/>
</clipPath>
</defs>
</svg>
