<svg width="103" height="36" viewBox="0 0 103 36" fill="none" xmlns="http://www.w3.org/2000/svg">
<rect x="0.554199" width="102" height="36" rx="8" fill="#131218"/>
<path fill-rule="evenodd" clip-rule="evenodd" d="M77.8291 8.20202C74.1244 9.18262 71.5935 11.5319 70.34 15.1535C70.1178 15.7957 70.0556 16.4169 70.0556 17.9928C70.0556 19.5688 70.1178 20.19 70.34 20.8321C71.474 24.1084 73.6567 26.3438 76.8384 27.487C78.3385 28.0259 80.9265 28.1629 82.5542 27.7895C83.6925 27.5282 85.4869 26.7267 86.1701 26.174L86.5851 25.8383L85.5714 24.6922L84.5575 23.5462L83.4129 24.5801C82.7834 25.1488 82.2224 25.6141 82.1663 25.6141C82.0767 25.6141 78.9267 22.2253 78.3873 21.5487C78.2097 21.3259 78.2527 21.2347 78.7278 20.8257L79.2716 20.3575L77.9026 18.8621C77.1496 18.0396 76.5335 17.3078 76.5335 17.2359C76.5335 17.164 76.7416 16.9544 76.9957 16.7701C77.2499 16.5859 77.4386 16.3523 77.4148 16.251C77.3912 16.1498 76.8088 15.4663 76.1206 14.7321C75.4324 13.9978 74.8494 13.3343 74.825 13.2575C74.8006 13.1807 75.5695 12.4218 76.5335 11.5711C77.4976 10.7203 78.4758 9.8536 78.7075 9.64498L79.1287 9.26586L79.8815 9.99287L80.6343 10.7199L81.7947 9.70162L82.9551 8.68351L83.6798 9.38332L84.4046 10.0833L84.8131 9.76827C85.0378 9.59492 85.2216 9.3872 85.2216 9.30636C85.2216 9.09939 83.6856 8.45801 82.5746 8.20112C81.413 7.93259 78.8452 7.93303 77.8291 8.20202ZM85.6967 10.7271C85.1444 11.2856 85.1681 11.4913 85.8553 12.1152L86.2123 12.4392L86.8182 11.9375L87.4239 11.436L86.9616 10.8759C86.7074 10.5679 86.432 10.2938 86.3496 10.2669C86.2673 10.24 85.9735 10.4472 85.6967 10.7271ZM81.9495 11.3242L81.04 12.1235L81.8912 12.9919L82.7423 13.8601L83.6009 13.1334C84.0731 12.7337 84.4595 12.3464 84.4595 12.2725C84.4595 12.1989 84.0993 11.7754 83.6592 11.3317L82.859 10.5249L81.9495 11.3242ZM77.8977 12.1137C77.2731 12.6633 76.7463 13.1854 76.727 13.2741C76.7076 13.3625 77.1626 13.9379 77.738 14.5525L78.784 15.6698L79.9452 14.6511C80.5837 14.0907 81.1062 13.5705 81.1062 13.4949C81.1062 13.3818 80.5203 12.7046 79.2099 11.3034C79.0706 11.1543 78.7932 11.3257 77.8977 12.1137ZM29.0923 13.4066L28.5207 13.5395V17.563V21.5868L28.9398 21.744C31.8476 22.8352 33.7815 21.4481 33.4983 18.4748C33.3601 17.0246 32.9339 16.488 31.64 16.135C31.4694 16.0884 30.9742 16.1409 30.5397 16.2513L29.7497 16.4523L29.7067 14.863L29.6638 13.2738L29.0923 13.4066ZM12.5717 14.0701C12.6133 14.214 13.0456 16.0633 13.5321 18.1796L14.4168 22.0276H15.0426H15.6685L16.4012 19.3004C16.8042 17.8005 17.1802 16.5212 17.2369 16.4577C17.2934 16.3941 17.6023 17.302 17.9229 18.4751C18.2436 19.6481 18.6024 20.931 18.7204 21.326L18.9349 22.0441L19.5612 21.9985L20.1875 21.9529L21.0682 18.217C21.5526 16.1622 21.9528 14.3259 21.9577 14.1363C21.9658 13.8223 21.9089 13.7956 21.3259 13.8374L20.6854 13.8833L20.1318 16.7229C19.8275 18.2847 19.5461 19.6575 19.5066 19.7735C19.4671 19.8896 19.064 18.5918 18.6105 16.8895L17.7861 13.7944L17.2575 13.8388L16.7287 13.8833L15.9701 16.9468C15.3289 19.5362 15.192 19.9409 15.0858 19.5619C15.0167 19.3153 14.707 17.9199 14.3974 16.4611L13.8347 13.8086H13.1653C12.6004 13.8086 12.5077 13.8494 12.5717 14.0701ZM34.8387 13.9978C34.798 14.1019 34.7831 15.9343 34.8055 18.0699L34.8462 21.9529L35.3416 21.9997L35.8369 22.0466V19.0982C35.8369 17.4765 35.8881 16.2 35.9508 16.2614C36.0134 16.3229 36.5847 17.6285 37.2203 19.1629C38.2566 21.6649 38.4151 21.9575 38.7566 21.9977C39.1183 22.0402 39.1974 21.8928 40.3449 19.0375L41.5527 16.0327L41.594 19.0301L41.6352 22.0276H42.2418H42.8483V17.9099V13.7922L42.1405 13.8377L41.4326 13.8833L40.2009 17.0551C39.5235 18.7996 38.927 20.1782 38.8753 20.1186C38.8236 20.0589 38.2118 18.6149 37.5155 16.9094L36.2498 13.8086H35.5813C35.1826 13.8086 34.8829 13.885 34.8387 13.9978ZM87.2564 14.3059L86.6696 14.8346L87.1948 15.3677C87.4838 15.6609 87.7582 15.8997 87.8045 15.8985C87.851 15.8973 88.1502 15.6786 88.4697 15.4128L89.0502 14.9294L88.4468 14.3533L87.8432 13.7772L87.2564 14.3059ZM83.633 14.9223L82.7304 15.7289L83.5568 16.6134L84.3832 17.498L85.2597 16.7592C85.7418 16.3531 86.1361 15.9632 86.1361 15.8929C86.1361 15.8227 85.7759 15.3941 85.3359 14.9404L84.5357 14.1157L83.633 14.9223ZM79.4448 16.342L78.3167 17.3667L79.3652 18.5017C79.942 19.1259 80.4838 19.6336 80.5695 19.6301C80.655 19.6266 81.2303 19.168 81.8476 18.611L82.97 17.5986L81.9244 16.4508C81.3493 15.8194 80.8099 15.3062 80.7257 15.3101C80.6416 15.314 80.0651 15.7783 79.4448 16.342ZM24.1767 16.2712C23.0189 16.679 22.4141 17.7188 22.4363 19.263C22.466 21.3336 23.8967 22.4691 25.9356 22.0403C27.0071 21.815 27.3013 21.6341 27.3013 21.2005C27.3013 20.7671 27.2989 20.7667 26.5919 21.0563C25.9612 21.3147 24.8246 21.351 24.3969 21.1265C24.0265 20.9322 23.6432 20.2163 23.6432 19.7188V19.3378H25.5698H27.4964L27.4092 18.5097C27.2132 16.6483 25.8283 15.6893 24.1767 16.2712ZM46.001 16.2632C44.8184 16.6838 44.2268 17.6342 44.2268 19.1136C44.2268 20.7072 45.0671 21.8833 46.3493 22.0843C47.7046 22.2968 49.0435 21.511 49.3858 20.3021C49.7242 19.1073 49.4858 17.615 48.8457 16.9215C48.2006 16.2226 46.9372 15.9303 46.001 16.2632ZM52.6445 16.2021C52.2898 16.2739 51.6897 16.4669 51.3108 16.6312L50.6218 16.93V19.4788V22.0276H51.2315H51.8412V19.7354V17.443L52.2294 17.2697C52.8132 17.0089 53.899 17.0505 54.147 17.3431C54.2978 17.5209 54.3708 18.2114 54.4084 19.8168L54.4607 22.0441L55.0181 21.9985L55.5755 21.9529V19.7113C55.5755 17.2095 55.4946 16.7477 55.0015 16.4373C54.5479 16.1518 53.4407 16.0412 52.6445 16.2021ZM58.5478 16.2199C57.8427 16.4207 57.0571 17.1781 56.8705 17.8368C56.6013 18.7868 56.6855 20.1068 57.0616 20.8344C57.5357 21.7513 58.1859 22.0908 59.4539 22.0831C60.7625 22.0751 61.5962 21.7367 61.5962 21.2133C61.5962 20.7698 61.5177 20.7547 60.7813 21.0563C60.4805 21.1796 59.918 21.2804 59.5316 21.2804C58.6113 21.2804 57.9381 20.6855 57.9381 19.8723V19.3378H59.8577H61.7773L61.6735 18.5532C61.6165 18.1218 61.4557 17.5352 61.3162 17.2498C60.8865 16.3702 59.6432 15.9076 58.5478 16.2199ZM62.208 16.6853C62.2896 16.8703 62.7999 18.1556 63.3422 19.5417L64.3281 22.062L64.0371 22.6212C63.8638 22.9543 63.558 23.2567 63.2809 23.3693C62.9145 23.5181 62.8156 23.6498 62.8156 23.9884C62.8156 24.3351 62.8822 24.4185 63.1585 24.418C63.6696 24.4173 64.4044 23.9207 64.7827 23.3205C64.9669 23.0284 65.6534 21.3404 66.3082 19.5692L67.4989 16.349H66.8616H66.2245L65.6438 18.2543C65.3243 19.3022 65.0146 20.2487 64.9556 20.3577C64.8929 20.4735 64.546 19.6824 64.1205 18.4523L63.3925 16.349H62.7263C62.0931 16.349 62.0673 16.3658 62.208 16.6853ZM25.8432 17.2347C25.9894 17.3931 26.1642 17.763 26.2319 18.0566L26.3546 18.5906H24.999C24.2533 18.5906 23.6432 18.5277 23.6432 18.4508C23.6432 18.185 23.9703 17.4692 24.211 17.2086C24.5448 16.8468 25.4992 16.862 25.8432 17.2347ZM31.7752 17.2098C32.2567 17.4779 32.4701 19.0655 32.168 20.132C31.9116 21.0377 31.5411 21.3034 30.6087 21.2507L29.8163 21.2057V19.263V17.3204L30.3497 17.1457C30.8305 16.9882 31.4251 17.0149 31.7752 17.2098ZM47.703 17.2964C48.5146 18.1436 48.5219 20.201 47.7159 20.9913C47.3909 21.3099 46.6584 21.3707 46.1787 21.119C45.2246 20.6183 45.2112 17.8343 46.1595 17.1336C46.5738 16.8275 47.33 16.9072 47.703 17.2964ZM59.8365 17.0396C60.1345 17.1516 60.5292 17.861 60.5292 18.2842C60.5292 18.5694 60.4382 18.5906 59.2146 18.5906H57.9L57.9975 18.1121C58.1839 17.1984 58.9976 16.724 59.8365 17.0396ZM88.8064 17.8878L88.225 18.3805L88.7206 18.9338C88.9931 19.2382 89.262 19.4872 89.3181 19.4872C89.374 19.4872 89.6752 19.281 89.987 19.0289L90.5542 18.5705L90.0725 17.9828C89.8076 17.6596 89.5452 17.3951 89.4892 17.3951C89.4334 17.3951 89.1262 17.6168 88.8064 17.8878ZM85.1701 18.757L84.2956 19.5211L85.1015 20.3635C85.5449 20.8267 85.9459 21.2057 85.9927 21.2057C86.0396 21.2057 86.4675 20.8653 86.9436 20.4493L87.8094 19.6927L87.0368 18.8428C86.6118 18.3752 86.2148 17.9928 86.1544 17.9928C86.0939 17.9928 85.6509 18.3367 85.1701 18.757ZM81.2803 20.4195L80.0565 21.4837L80.9593 22.4819C82.3545 24.025 82.1565 23.9961 83.4658 22.8471C84.0962 22.2941 84.6119 21.7991 84.6119 21.7473C84.6119 21.6956 84.1375 21.1362 83.5579 20.5043L82.504 19.3554L81.2803 20.4195ZM86.8231 22.3694L85.9363 23.1593L86.7813 24.0492L87.6262 24.9392L88.4435 24.1933C88.893 23.7829 89.2607 23.3714 89.2607 23.2786C89.2607 23.134 87.8832 21.5793 87.7551 21.5793C87.7301 21.5793 87.3107 21.9348 86.8231 22.3694Z" fill="white"/>
</svg>
